<mxfile modified="2023-12-16T03:22:13.378Z" host="app.diagrams.net" agent="Mozilla/5.0 (Macintosh; Intel Mac OS X 10_15_7) AppleWebKit/537.36 (KHTML, like Gecko) Chrome/120.0.0.0 Safari/537.36" etag="iwgwicrdLbhXP9Js-AXL" version="22.1.11" type="github">
  <diagram id="l8hXMBHkgcEJcSW0mbfh" name="Page-1">
    <mxGraphModel dx="785" dy="535" grid="1" gridSize="10" guides="1" tooltips="1" connect="1" arrows="1" fold="1" page="1" pageScale="1" pageWidth="1169" pageHeight="827" math="0" shadow="0">
      <root>
        <mxCell id="0" />
        <mxCell id="1" parent="0" />
        <mxCell id="8--HhbSZYtI3ddgJnD71-25" style="edgeStyle=none;rounded=0;orthogonalLoop=1;jettySize=auto;html=1;sourcePerimeterSpacing=5;endArrow=none;endFill=0;targetPerimeterSpacing=5;" parent="1" source="8--HhbSZYtI3ddgJnD71-2" target="8--HhbSZYtI3ddgJnD71-12" edge="1">
          <mxGeometry relative="1" as="geometry" />
        </mxCell>
        <mxCell id="8--HhbSZYtI3ddgJnD71-24" style="edgeStyle=none;rounded=0;orthogonalLoop=1;jettySize=auto;html=1;sourcePerimeterSpacing=5;endArrow=none;endFill=0;targetPerimeterSpacing=5;" parent="1" source="8--HhbSZYtI3ddgJnD71-5" target="8--HhbSZYtI3ddgJnD71-12" edge="1">
          <mxGeometry relative="1" as="geometry" />
        </mxCell>
        <mxCell id="8--HhbSZYtI3ddgJnD71-26" style="edgeStyle=none;rounded=0;orthogonalLoop=1;jettySize=auto;html=1;sourcePerimeterSpacing=5;endArrow=none;endFill=0;targetPerimeterSpacing=5;" parent="1" source="8--HhbSZYtI3ddgJnD71-11" target="8--HhbSZYtI3ddgJnD71-7" edge="1">
          <mxGeometry relative="1" as="geometry" />
        </mxCell>
        <mxCell id="8--HhbSZYtI3ddgJnD71-27" style="edgeStyle=none;rounded=0;orthogonalLoop=1;jettySize=auto;html=1;sourcePerimeterSpacing=5;endArrow=none;endFill=0;targetPerimeterSpacing=5;" parent="1" source="8--HhbSZYtI3ddgJnD71-11" target="8--HhbSZYtI3ddgJnD71-3" edge="1">
          <mxGeometry relative="1" as="geometry" />
        </mxCell>
        <mxCell id="8--HhbSZYtI3ddgJnD71-28" style="edgeStyle=none;rounded=0;orthogonalLoop=1;jettySize=auto;html=1;sourcePerimeterSpacing=5;endArrow=none;endFill=0;targetPerimeterSpacing=5;" parent="1" source="8--HhbSZYtI3ddgJnD71-11" target="8--HhbSZYtI3ddgJnD71-13" edge="1">
          <mxGeometry relative="1" as="geometry" />
        </mxCell>
        <mxCell id="8--HhbSZYtI3ddgJnD71-29" style="edgeStyle=none;rounded=0;orthogonalLoop=1;jettySize=auto;html=1;sourcePerimeterSpacing=5;endArrow=none;endFill=0;targetPerimeterSpacing=5;" parent="1" source="8--HhbSZYtI3ddgJnD71-11" target="8--HhbSZYtI3ddgJnD71-6" edge="1">
          <mxGeometry relative="1" as="geometry" />
        </mxCell>
        <mxCell id="8--HhbSZYtI3ddgJnD71-30" style="edgeStyle=none;rounded=0;orthogonalLoop=1;jettySize=auto;html=1;sourcePerimeterSpacing=5;endArrow=none;endFill=0;targetPerimeterSpacing=5;" parent="1" source="8--HhbSZYtI3ddgJnD71-11" target="8--HhbSZYtI3ddgJnD71-4" edge="1">
          <mxGeometry relative="1" as="geometry" />
        </mxCell>
        <mxCell id="8--HhbSZYtI3ddgJnD71-31" style="edgeStyle=none;rounded=0;orthogonalLoop=1;jettySize=auto;html=1;sourcePerimeterSpacing=5;endArrow=none;endFill=0;targetPerimeterSpacing=5;" parent="1" source="8--HhbSZYtI3ddgJnD71-11" target="8--HhbSZYtI3ddgJnD71-19" edge="1">
          <mxGeometry relative="1" as="geometry" />
        </mxCell>
        <mxCell id="8--HhbSZYtI3ddgJnD71-21" style="edgeStyle=none;rounded=0;orthogonalLoop=1;jettySize=auto;html=1;sourcePerimeterSpacing=5;endArrow=none;endFill=0;targetPerimeterSpacing=5;" parent="1" source="8--HhbSZYtI3ddgJnD71-12" target="8--HhbSZYtI3ddgJnD71-11" edge="1">
          <mxGeometry relative="1" as="geometry" />
        </mxCell>
        <mxCell id="8--HhbSZYtI3ddgJnD71-23" style="edgeStyle=none;rounded=0;orthogonalLoop=1;jettySize=auto;html=1;sourcePerimeterSpacing=5;endArrow=none;endFill=0;targetPerimeterSpacing=5;" parent="1" source="8--HhbSZYtI3ddgJnD71-16" target="8--HhbSZYtI3ddgJnD71-12" edge="1">
          <mxGeometry relative="1" as="geometry" />
        </mxCell>
        <mxCell id="8--HhbSZYtI3ddgJnD71-20" style="rounded=0;orthogonalLoop=1;jettySize=auto;html=1;endArrow=none;endFill=0;sourcePerimeterSpacing=5;targetPerimeterSpacing=5;" parent="1" source="8--HhbSZYtI3ddgJnD71-17" target="8--HhbSZYtI3ddgJnD71-12" edge="1">
          <mxGeometry relative="1" as="geometry" />
        </mxCell>
        <mxCell id="8--HhbSZYtI3ddgJnD71-22" style="edgeStyle=none;rounded=0;orthogonalLoop=1;jettySize=auto;html=1;sourcePerimeterSpacing=5;endArrow=none;endFill=0;targetPerimeterSpacing=5;" parent="1" source="8--HhbSZYtI3ddgJnD71-18" target="8--HhbSZYtI3ddgJnD71-12" edge="1">
          <mxGeometry relative="1" as="geometry" />
        </mxCell>
        <mxCell id="8--HhbSZYtI3ddgJnD71-32" style="edgeStyle=none;rounded=0;orthogonalLoop=1;jettySize=auto;html=1;sourcePerimeterSpacing=5;endArrow=none;endFill=0;targetPerimeterSpacing=5;" parent="1" source="8--HhbSZYtI3ddgJnD71-19" target="8--HhbSZYtI3ddgJnD71-9" edge="1">
          <mxGeometry relative="1" as="geometry" />
        </mxCell>
        <mxCell id="8--HhbSZYtI3ddgJnD71-33" style="edgeStyle=none;rounded=0;orthogonalLoop=1;jettySize=auto;html=1;sourcePerimeterSpacing=5;endArrow=none;endFill=0;targetPerimeterSpacing=5;" parent="1" source="8--HhbSZYtI3ddgJnD71-19" target="8--HhbSZYtI3ddgJnD71-8" edge="1">
          <mxGeometry relative="1" as="geometry" />
        </mxCell>
        <mxCell id="8--HhbSZYtI3ddgJnD71-34" style="edgeStyle=none;rounded=0;orthogonalLoop=1;jettySize=auto;html=1;sourcePerimeterSpacing=5;endArrow=none;endFill=0;targetPerimeterSpacing=5;" parent="1" source="8--HhbSZYtI3ddgJnD71-19" target="8--HhbSZYtI3ddgJnD71-15" edge="1">
          <mxGeometry relative="1" as="geometry" />
        </mxCell>
        <mxCell id="8--HhbSZYtI3ddgJnD71-35" style="edgeStyle=none;rounded=0;orthogonalLoop=1;jettySize=auto;html=1;sourcePerimeterSpacing=5;endArrow=none;endFill=0;targetPerimeterSpacing=5;" parent="1" source="8--HhbSZYtI3ddgJnD71-19" target="8--HhbSZYtI3ddgJnD71-14" edge="1">
          <mxGeometry relative="1" as="geometry" />
        </mxCell>
        <mxCell id="8--HhbSZYtI3ddgJnD71-36" style="edgeStyle=none;rounded=0;orthogonalLoop=1;jettySize=auto;html=1;sourcePerimeterSpacing=5;endArrow=none;endFill=0;targetPerimeterSpacing=5;" parent="1" source="8--HhbSZYtI3ddgJnD71-19" target="8--HhbSZYtI3ddgJnD71-1" edge="1">
          <mxGeometry relative="1" as="geometry" />
        </mxCell>
        <mxCell id="8--HhbSZYtI3ddgJnD71-37" style="edgeStyle=none;rounded=0;orthogonalLoop=1;jettySize=auto;html=1;sourcePerimeterSpacing=5;endArrow=none;endFill=0;targetPerimeterSpacing=5;" parent="1" source="8--HhbSZYtI3ddgJnD71-19" target="8--HhbSZYtI3ddgJnD71-10" edge="1">
          <mxGeometry relative="1" as="geometry" />
        </mxCell>
        <mxCell id="8--HhbSZYtI3ddgJnD71-1" value="Tape&#xa;Storage" style="shape=image;verticalLabelPosition=bottom;verticalAlign=top;imageAspect=0;aspect=fixed;image=data:image/svg+xml,PHN2ZyB4bWxucz0iaHR0cDovL3d3dy53My5vcmcvMjAwMC9zdmciIHZlcnNpb249IjEiIHZpZXdCb3g9IjAgMCA0OCA0OCIgZW5hYmxlLWJhY2tncm91bmQ9Im5ldyAwIDAgNDggNDgiPiYjeGE7ICAgIDxwYXRoIGZpbGw9IiM0Q0FGNTAiIGQ9Ik00OCwyNGMwLTYuMS00LjktMTEtMTEtMTFzLTExLDQuOS0xMSwxMWMwLDIuNywwLjksNS4xLDIuNSw3aC05YzEuNi0xLjksMi41LTQuMywyLjUtN2MwLTYuMS00LjktMTEtMTEtMTEgUzAsMTcuOSwwLDI0czQuOSwxMSwxMSwxMWgyN3YtMC4xQzQzLjYsMzQuNCw0OCwyOS43LDQ4LDI0eiBNNCwyNGMwLTMuOSwzLjEtNyw3LTdzNywzLjEsNyw3cy0zLjEsNy03LDdTNCwyNy45LDQsMjR6IE0zNywzMSBjLTMuOSwwLTctMy4xLTctN3MzLjEtNyw3LTdjMy45LDAsNywzLjEsNyw3UzQwLjksMzEsMzcsMzF6Ii8+JiN4YTs8L3N2Zz4=;labelBackgroundColor=#ffffff;" parent="1" vertex="1">
          <mxGeometry x="710" y="508" width="48" height="48" as="geometry" />
        </mxCell>
        <mxCell id="8--HhbSZYtI3ddgJnD71-2" value="Mobile" style="shape=image;verticalLabelPosition=bottom;verticalAlign=top;imageAspect=0;aspect=fixed;image=data:image/svg+xml,PHN2ZyB4bWxucz0iaHR0cDovL3d3dy53My5vcmcvMjAwMC9zdmciIHZlcnNpb249IjEiIHZpZXdCb3g9IjAgMCA0OCA0OCIgZW5hYmxlLWJhY2tncm91bmQ9Im5ldyAwIDAgNDggNDgiPiYjeGE7ICAgIDxwYXRoIGZpbGw9IiMzNzQ3NEYiIGQ9Ik00LDM5VjdjMC0yLjIsMS44LTQsNC00aDIyYzIuMiwwLDQsMS44LDQsNHYzMmMwLDIuMi0xLjgsNC00LDRIOEM1LjgsNDMsNCw0MS4yLDQsMzl6Ii8+JiN4YTsgICAgPHBhdGggZmlsbD0iI0JCREVGQiIgZD0iTTMwLDZIOEM3LjQsNiw3LDYuNCw3LDd2MjljMCwwLjYsMC40LDEsMSwxaDIyYzAuNiwwLDEtMC40LDEtMVY3QzMxLDYuNCwzMC42LDYsMzAsNnoiLz4mI3hhOyAgICA8cmVjdCB4PSIxNSIgeT0iMzkiIGZpbGw9IiM3ODkwOUMiIHdpZHRoPSI2IiBoZWlnaHQ9IjIiLz4mI3hhOyAgICA8cGF0aCBmaWxsPSIjRTM4OTM5IiBkPSJNMjQsNDFWMTdjMC0yLjIsMS44LTQsNC00aDEyYzIuMiwwLDQsMS44LDQsNHYyNGMwLDIuMi0xLjgsNC00LDRIMjhDMjUuOCw0NSwyNCw0My4yLDI0LDQxeiIvPiYjeGE7ICAgIDxwYXRoIGZpbGw9IiNGRkYzRTAiIGQ9Ik00MCwxNkgyOGMtMC42LDAtMSwwLjQtMSwxdjIyYzAsMC42LDAuNCwxLDEsMWgxMmMwLjYsMCwxLTAuNCwxLTFWMTdDNDEsMTYuNCw0MC42LDE2LDQwLDE2eiIvPiYjeGE7ICAgIDxjaXJjbGUgZmlsbD0iI0E2NjQyQSIgY3g9IjM0IiBjeT0iNDIuNSIgcj0iMS41Ii8+JiN4YTs8L3N2Zz4=;labelBackgroundColor=#ffffff;" parent="1" vertex="1">
          <mxGeometry x="202" y="282" width="48" height="48" as="geometry" />
        </mxCell>
        <mxCell id="8--HhbSZYtI3ddgJnD71-3" value="Chat" style="shape=image;verticalLabelPosition=bottom;verticalAlign=top;imageAspect=0;aspect=fixed;image=data:image/svg+xml,PHN2ZyB4bWxucz0iaHR0cDovL3d3dy53My5vcmcvMjAwMC9zdmciIHZlcnNpb249IjEiIHZpZXdCb3g9IjAgMCA0OCA0OCIgZW5hYmxlLWJhY2tncm91bmQ9Im5ldyAwIDAgNDggNDgiPiYjeGE7ICAgIDxwYXRoIGZpbGw9IiMwMDk2ODgiIGQ9Ik0zNywzOUgxMWwtNiw2VjExYzAtMy4zLDIuNy02LDYtNmgyNmMzLjMsMCw2LDIuNyw2LDZ2MjJDNDMsMzYuMyw0MC4zLDM5LDM3LDM5eiIvPiYjeGE7ICAgIDxnIGZpbGw9IiNmZmYiPiYjeGE7ICAgICAgICA8Y2lyY2xlIGN4PSIyNCIgY3k9IjIyIiByPSIzIi8+JiN4YTsgICAgICAgIDxjaXJjbGUgY3g9IjM0IiBjeT0iMjIiIHI9IjMiLz4mI3hhOyAgICAgICAgPGNpcmNsZSBjeD0iMTQiIGN5PSIyMiIgcj0iMyIvPiYjeGE7ICAgIDwvZz4mI3hhOzwvc3ZnPg==;labelBackgroundColor=#ffffff;" parent="1" vertex="1">
          <mxGeometry x="684" y="76" width="48" height="48" as="geometry" />
        </mxCell>
        <mxCell id="8--HhbSZYtI3ddgJnD71-4" value="Customer Support" style="shape=image;verticalLabelPosition=bottom;verticalAlign=top;imageAspect=0;aspect=fixed;image=data:image/svg+xml,PHN2ZyB4bWxucz0iaHR0cDovL3d3dy53My5vcmcvMjAwMC9zdmciIHZlcnNpb249IjEiIHZpZXdCb3g9IjAgMCA0OCA0OCIgZW5hYmxlLWJhY2tncm91bmQ9Im5ldyAwIDAgNDggNDgiPiYjeGE7ICAgIDxyZWN0IHg9IjEzIiB5PSIzMCIgZmlsbD0iI0JGMzYwQyIgd2lkdGg9IjIyIiBoZWlnaHQ9IjEyIi8+JiN4YTsgICAgPGcgZmlsbD0iI0ZGQTcyNiI+JiN4YTsgICAgICAgIDxjaXJjbGUgY3g9IjEwIiBjeT0iMjYiIHI9IjQiLz4mI3hhOyAgICAgICAgPGNpcmNsZSBjeD0iMzgiIGN5PSIyNiIgcj0iNCIvPiYjeGE7ICAgIDwvZz4mI3hhOyAgICA8cGF0aCBmaWxsPSIjRkZCNzREIiBkPSJNMzksMTljMC0xMi43LTMwLTguMy0zMCwwYzAsMS44LDAsOC4yLDAsMTBjMCw4LjMsNi43LDE1LDE1LDE1czE1LTYuNywxNS0xNUMzOSwyNy4yLDM5LDIwLjgsMzksMTl6Ii8+JiN4YTsgICAgPGcgZmlsbD0iIzc4NDcxOSI+JiN4YTsgICAgICAgIDxjaXJjbGUgY3g9IjMwIiBjeT0iMjYiIHI9IjIiLz4mI3hhOyAgICAgICAgPGNpcmNsZSBjeD0iMTgiIGN5PSIyNiIgcj0iMiIvPiYjeGE7ICAgIDwvZz4mI3hhOyAgICA8cGF0aCBmaWxsPSIjRkY1NzIyIiBkPSJNMjQsMkMxNS41LDIsMyw3LjgsMywzNS42TDEzLDQyVjI0bDE2LjgtOS44TDM1LDIxdjIxbDEwLTguMmMwLTUuNi0wLjktMjktMTUuNC0yOUwyOC4yLDJIMjR6Ii8+JiN4YTsgICAgPHBhdGggZmlsbD0iIzc1NzU3NSIgZD0iTTQ1LDI0Yy0wLjYsMC0xLDAuNC0xLDF2LTdjMC04LjgtNy4yLTE2LTE2LTE2aC05Yy0wLjYsMC0xLDAuNC0xLDFzMC40LDEsMSwxaDljNy43LDAsMTQsNi4zLDE0LDE0djEwIGMwLDAuNiwwLjQsMSwxLDFzMS0wLjQsMS0xdjJjMCwzLjktMy4xLDctNyw3SDI0Yy0wLjYsMC0xLDAuNC0xLDFzMC40LDEsMSwxaDEzYzUsMCw5LTQsOS05di01QzQ2LDI0LjQsNDUuNiwyNCw0NSwyNHoiLz4mI3hhOyAgICA8ZyBmaWxsPSIjMzc0NzRGIj4mI3hhOyAgICAgICAgPHBhdGggZD0iTTQ1LDIyaC0xYy0xLjEsMC0yLDAuOS0yLDJ2NGMwLDEuMSwwLjksMiwyLDJoMWMxLjEsMCwyLTAuOSwyLTJ2LTRDNDcsMjIuOSw0Ni4xLDIyLDQ1LDIyeiIvPiYjeGE7ICAgICAgICA8Y2lyY2xlIGN4PSIyNCIgY3k9IjM4IiByPSIyIi8+JiN4YTsgICAgPC9nPiYjeGE7PC9zdmc+;labelBackgroundColor=#ffffff;" parent="1" vertex="1">
          <mxGeometry x="858" y="330" width="48" height="48" as="geometry" />
        </mxCell>
        <mxCell id="8--HhbSZYtI3ddgJnD71-5" value="Home" style="shape=image;verticalLabelPosition=bottom;verticalAlign=top;imageAspect=0;aspect=fixed;image=data:image/svg+xml,PHN2ZyB4bWxucz0iaHR0cDovL3d3dy53My5vcmcvMjAwMC9zdmciIHZlcnNpb249IjEiIHZpZXdCb3g9IjAgMCA0OCA0OCIgZW5hYmxlLWJhY2tncm91bmQ9Im5ldyAwIDAgNDggNDgiPiYjeGE7ICAgIDxwb2x5Z29uIGZpbGw9IiNFOEVBRjYiIHBvaW50cz0iNDIsMzkgNiwzOSA2LDIzIDI0LDYgNDIsMjMiLz4mI3hhOyAgICA8ZyBmaWxsPSIjQzVDQUU5Ij4mI3hhOyAgICAgICAgPHBvbHlnb24gcG9pbnRzPSIzOSwyMSAzNCwxNiAzNCw5IDM5LDkiLz4mI3hhOyAgICAgICAgPHJlY3QgeD0iNiIgeT0iMzkiIHdpZHRoPSIzNiIgaGVpZ2h0PSI1Ii8+JiN4YTsgICAgPC9nPiYjeGE7ICAgIDxwb2x5Z29uIGZpbGw9IiNCNzFDMUMiIHBvaW50cz0iMjQsNC4zIDQsMjIuOSA2LDI1LjEgMjQsOC40IDQyLDI1LjEgNDQsMjIuOSIvPiYjeGE7ICAgIDxyZWN0IHg9IjE4IiB5PSIyOCIgZmlsbD0iI0Q4NDMxNSIgd2lkdGg9IjEyIiBoZWlnaHQ9IjE2Ii8+JiN4YTsgICAgPHJlY3QgeD0iMjEiIHk9IjE3IiBmaWxsPSIjMDE1NzlCIiB3aWR0aD0iNiIgaGVpZ2h0PSI2Ii8+JiN4YTsgICAgPHBhdGggZmlsbD0iI0ZGOEE2NSIgZD0iTTI3LjUsMzUuNWMtMC4zLDAtMC41LDAuMi0wLjUsMC41djJjMCwwLjMsMC4yLDAuNSwwLjUsMC41UzI4LDM4LjMsMjgsMzh2LTJDMjgsMzUuNywyNy44LDM1LjUsMjcuNSwzNS41eiIvPiYjeGE7PC9zdmc+;labelBackgroundColor=#ffffff;" parent="1" vertex="1">
          <mxGeometry x="170" y="186" width="48" height="48" as="geometry" />
        </mxCell>
        <mxCell id="8--HhbSZYtI3ddgJnD71-6" value="Education" style="shape=image;verticalLabelPosition=bottom;verticalAlign=top;imageAspect=0;aspect=fixed;image=data:image/svg+xml,PHN2ZyB4bWxucz0iaHR0cDovL3d3dy53My5vcmcvMjAwMC9zdmciIHZlcnNpb249IjEiIHZpZXdCb3g9IjAgMCA0OCA0OCIgZW5hYmxlLWJhY2tncm91bmQ9Im5ldyAwIDAgNDggNDgiPiYjeGE7ICAgIDxnIGZpbGw9IiMzNzQ3NEYiPiYjeGE7ICAgICAgICA8cmVjdCB4PSI5IiB5PSIyMCIgd2lkdGg9IjMwIiBoZWlnaHQ9IjEzIi8+JiN4YTsgICAgICAgIDxlbGxpcHNlIGN4PSIyNCIgY3k9IjMzIiByeD0iMTUiIHJ5PSI2Ii8+JiN4YTsgICAgPC9nPiYjeGE7ICAgIDxwYXRoIGZpbGw9IiM3ODkwOUMiIGQ9Ik0yMy4xLDguMkwwLjYsMTguMWMtMC44LDAuNC0wLjgsMS41LDAsMS45bDIyLjUsOS45YzAuNiwwLjIsMS4yLDAuMiwxLjgsMGwyMi41LTkuOWMwLjgtMC40LDAuOC0xLjUsMC0xLjkgTDI0LjksOC4yQzI0LjMsNy45LDIzLjcsNy45LDIzLjEsOC4yeiIvPiYjeGE7ICAgIDxnIGZpbGw9IiMzNzQ3NEYiPiYjeGE7ICAgICAgICA8cGF0aCBkPSJNNDMuMiwyMC40bC0yMC0zLjRjLTAuNS0wLjEtMS4xLDAuMy0xLjIsMC44Yy0wLjEsMC41LDAuMywxLjEsMC44LDEuMkw0MiwyMi4yVjM3YzAsMC42LDAuNCwxLDEsMSBzMS0wLjQsMS0xVjIxLjRDNDQsMjAuOSw0My42LDIwLjUsNDMuMiwyMC40eiIvPiYjeGE7ICAgICAgICA8Y2lyY2xlIGN4PSI0MyIgY3k9IjM3IiByPSIyIi8+JiN4YTsgICAgICAgIDxwYXRoIGQ9Ik00Niw0MGMwLDEuNy0zLDYtMyw2cy0zLTQuMy0zLTZzMS4zLTMsMy0zUzQ2LDM4LjMsNDYsNDB6Ii8+JiN4YTsgICAgPC9nPiYjeGE7PC9zdmc+;labelBackgroundColor=#ffffff;" parent="1" vertex="1">
          <mxGeometry x="880" y="220" width="48" height="48" as="geometry" />
        </mxCell>
        <mxCell id="8--HhbSZYtI3ddgJnD71-7" value="Alarm" style="shape=image;verticalLabelPosition=bottom;verticalAlign=top;imageAspect=0;aspect=fixed;image=data:image/svg+xml,PHN2ZyB4bWxucz0iaHR0cDovL3d3dy53My5vcmcvMjAwMC9zdmciIHZlcnNpb249IjEiIHZpZXdCb3g9IjAgMCA0OCA0OCIgZW5hYmxlLWJhY2tncm91bmQ9Im5ldyAwIDAgNDggNDgiPiYjeGE7ICAgIDxnIGZpbGw9IiMzNzQ3NEYiPiYjeGE7ICAgICAgICA8cGF0aCBkPSJNMzguNSw0NC42bC00LTRsMi4xLTIuMWw0LDRjMC42LDAuNiwwLjYsMS41LDAsMi4xbDAsMEM0MC4xLDQ1LjEsMzkuMSw0NS4xLDM4LjUsNDQuNnoiLz4mI3hhOyAgICAgICAgPHBhdGggZD0iTTkuNSw0NC42bDQtNGwtMi4xLTIuMWwtNCw0Yy0wLjYsMC42LTAuNiwxLjUsMCwyLjFsMCwwQzcuOSw0NS4xLDguOSw0NS4xLDkuNSw0NC42eiIvPiYjeGE7ICAgIDwvZz4mI3hhOyAgICA8Y2lyY2xlIGZpbGw9IiNDNjI4MjgiIGN4PSIyNCIgY3k9IjI0IiByPSIyMCIvPiYjeGE7ICAgIDxjaXJjbGUgZmlsbD0iI2VlZSIgY3g9IjI0IiBjeT0iMjQiIHI9IjE2Ii8+JiN4YTsgICAgPHJlY3QgeD0iMTkiIHk9IjIyLjEiIHRyYW5zZm9ybT0ibWF0cml4KC0uNzA3IC0uNzA3IC43MDcgLS43MDcgMTIuOTA0IDYyLjUzNykiIGZpbGw9IiNFNTM5MzUiIHdpZHRoPSIuOCIgaGVpZ2h0PSIxMyIvPiYjeGE7ICAgIDxyZWN0IHg9IjIzIiB5PSIxMSIgd2lkdGg9IjIiIGhlaWdodD0iMTMiLz4mI3hhOyAgICA8cmVjdCB4PSIyNi4xIiB5PSIyMi43IiB0cmFuc2Zvcm09Im1hdHJpeCgtLjcwNyAuNzA3IC0uNzA3IC0uNzA3IDY1Ljc4NyAyNy4yNSkiIHdpZHRoPSIyLjMiIGhlaWdodD0iOS4yIi8+JiN4YTsgICAgPGNpcmNsZSBjeD0iMjQiIGN5PSIyNCIgcj0iMiIvPiYjeGE7ICAgIDxjaXJjbGUgZmlsbD0iI0M2MjgyOCIgY3g9IjI0IiBjeT0iMjQiIHI9IjEiLz4mI3hhOyAgICA8cmVjdCB4PSIyMiIgeT0iMSIgZmlsbD0iIzM3NDc0RiIgd2lkdGg9IjQiIGhlaWdodD0iMyIvPiYjeGE7ICAgIDxnIGZpbGw9IiMzNzQ3NEYiPiYjeGE7ICAgICAgICA8cGF0aCBkPSJNNDQuNCwxNi4yYzIuNS0zLjUsMi4xLTguNC0xLTExLjVjLTMuMS0zLjEtOC0zLjUtMTEuNS0xTDQ0LjQsMTYuMnoiLz4mI3hhOyAgICAgICAgPHBhdGggZD0iTTMuNiwxNi4yYy0yLjUtMy41LTIuMS04LjQsMS0xMS41YzMuMS0zLjEsOC0zLjUsMTEuNS0xTDMuNiwxNi4yeiIvPiYjeGE7ICAgIDwvZz4mI3hhOzwvc3ZnPg==;labelBackgroundColor=#ffffff;" parent="1" vertex="1">
          <mxGeometry x="554" y="100" width="48" height="48" as="geometry" />
        </mxCell>
        <mxCell id="8--HhbSZYtI3ddgJnD71-8" value="Business" style="shape=image;verticalLabelPosition=bottom;verticalAlign=top;imageAspect=0;aspect=fixed;image=data:image/svg+xml,PHN2ZyB4bWxucz0iaHR0cDovL3d3dy53My5vcmcvMjAwMC9zdmciIHZlcnNpb249IjEiIHZpZXdCb3g9IjAgMCA0OCA0OCIgZW5hYmxlLWJhY2tncm91bmQ9Im5ldyAwIDAgNDggNDgiPiYjeGE7ICAgIDxnIGZpbGw9IiMyNjMyMzgiPiYjeGE7ICAgICAgICA8cGF0aCBkPSJNMTEsNDRIOWMtMC42LDAtMS0wLjQtMS0xdi0yaDR2MkMxMiw0My42LDExLjYsNDQsMTEsNDR6Ii8+JiN4YTsgICAgICAgIDxwYXRoIGQ9Ik0zOSw0NGgtMmMtMC42LDAtMS0wLjQtMS0xdi0yaDR2MkM0MCw0My42LDM5LjYsNDQsMzksNDR6Ii8+JiN4YTsgICAgPC9nPiYjeGE7ICAgIDxwYXRoIGZpbGw9IiMzNzQ3NEYiIGQ9Ik0yNyw3aC02Yy0xLjcsMC0zLDEuMy0zLDN2M2gydi0zYzAtMC42LDAuNC0xLDEtMWg2YzAuNiwwLDEsMC40LDEsMXYzaDJ2LTNDMzAsOC4zLDI4LjcsNywyNyw3eiIvPiYjeGE7ICAgIDxwYXRoIGZpbGw9IiM3ODkwOUMiIGQ9Ik00MCw0M0g4Yy0yLjIsMC00LTEuOC00LTRWMTVjMC0yLjIsMS44LTQsNC00aDMyYzIuMiwwLDQsMS44LDQsNHYyNEM0NCw0MS4yLDQyLjIsNDMsNDAsNDN6Ii8+JiN4YTs8L3N2Zz4=;labelBackgroundColor=#ffffff;" parent="1" vertex="1">
          <mxGeometry x="358" y="490" width="48" height="48" as="geometry" />
        </mxCell>
        <mxCell id="8--HhbSZYtI3ddgJnD71-9" value="Report" style="shape=image;verticalLabelPosition=bottom;verticalAlign=top;imageAspect=0;aspect=fixed;image=data:image/svg+xml,PHN2ZyB4bWxucz0iaHR0cDovL3d3dy53My5vcmcvMjAwMC9zdmciIHZlcnNpb249IjEiIHZpZXdCb3g9IjAgMCA0OCA0OCIgZW5hYmxlLWJhY2tncm91bmQ9Im5ldyAwIDAgNDggNDgiPiYjeGE7ICAgIDxwYXRoIGZpbGw9IiM3ODkwOUMiIGQ9Ik00MCw0MUg4Yy0yLjIsMC00LTEuOC00LTRsMC0yMC45YzAtMS4zLDAuNi0yLjUsMS43LTMuM0wyNCwwbDE4LjMsMTIuOGMxLjEsMC43LDEuNywyLDEuNywzLjNWMzcgQzQ0LDM5LjIsNDIuMiw0MSw0MCw0MXoiLz4mI3hhOyAgICA8cmVjdCB4PSIxMiIgeT0iMTEiIGZpbGw9IiNmZmYiIHdpZHRoPSIyNCIgaGVpZ2h0PSIyMiIvPiYjeGE7ICAgIDxwb2x5Z29uIGZpbGw9IiM5QzI3QjAiIHBvaW50cz0iMjQsMTMuNiAxOCwyMS40IDMwLDIxLjQiLz4mI3hhOyAgICA8cGF0aCBmaWxsPSIjQ0ZEOERDIiBkPSJNNDAsNDFIOGMtMi4yLDAtNC0xLjgtNC00bDAtMjBsMjAsMTNsMjAtMTN2MjBDNDQsMzkuMiw0Mi4yLDQxLDQwLDQxeiIvPiYjeGE7ICAgIDxwb2x5Z29uIGZpbGw9IiM5QzI3QjAiIHBvaW50cz0iMjQsMjggMjYsMjYuNyAyNiwyMCAyMiwyMCAyMiwyNi43Ii8+JiN4YTs8L3N2Zz4=;labelBackgroundColor=#ffffff;" parent="1" vertex="1">
          <mxGeometry x="334" y="378" width="48" height="48" as="geometry" />
        </mxCell>
        <mxCell id="8--HhbSZYtI3ddgJnD71-10" value="Storage" style="shape=image;verticalLabelPosition=bottom;verticalAlign=top;imageAspect=0;aspect=fixed;image=data:image/svg+xml,PHN2ZyB4bWxucz0iaHR0cDovL3d3dy53My5vcmcvMjAwMC9zdmciIHZlcnNpb249IjEiIHZpZXdCb3g9IjAgMCA0OCA0OCIgZW5hYmxlLWJhY2tncm91bmQ9Im5ldyAwIDAgNDggNDgiPiYjeGE7ICAgIDxyZWN0IHg9IjEyIiB5PSI0NCIgZmlsbD0iIzI2MzIzOCIgd2lkdGg9IjQiIGhlaWdodD0iMiIvPiYjeGE7ICAgIDxyZWN0IHg9IjMyIiB5PSI0NCIgZmlsbD0iIzI2MzIzOCIgd2lkdGg9IjQiIGhlaWdodD0iMiIvPiYjeGE7ICAgIDxwYXRoIGZpbGw9IiM2MDdEOEIiIGQ9Ik04LDQxVjdjMC0yLjIsMS44LTQsNC00aDI0YzIuMiwwLDQsMS44LDQsNHYzNGMwLDIuMi0xLjgsNC00LDRIMTJDOS44LDQ1LDgsNDMuMiw4LDQxeiIvPiYjeGE7ICAgIDxwYXRoIGZpbGw9IiNCMEJFQzUiIGQ9Ik0xMiwxN1Y4YzAtMC42LDAuNC0xLDEtMWgyMmMwLjYsMCwxLDAuNCwxLDF2OUgxMnoiLz4mI3hhOyAgICA8cmVjdCB4PSIxMiIgeT0iMTkiIGZpbGw9IiNCMEJFQzUiIHdpZHRoPSIyNCIgaGVpZ2h0PSIxMCIvPiYjeGE7ICAgIDxwYXRoIGZpbGw9IiNCMEJFQzUiIGQ9Ik0xMiw0MHYtOWgyNHY5YzAsMC42LTAuNCwxLTEsMUgxM0MxMi40LDQxLDEyLDQwLjYsMTIsNDB6Ii8+JiN4YTsgICAgPHJlY3QgeD0iMjAiIHk9IjExIiBmaWxsPSIjNTQ2RTdBIiB3aWR0aD0iOCIgaGVpZ2h0PSIyIi8+JiN4YTsgICAgPHJlY3QgeD0iMjAiIHk9IjIzIiBmaWxsPSIjNTQ2RTdBIiB3aWR0aD0iOCIgaGVpZ2h0PSIyIi8+JiN4YTsgICAgPHJlY3QgeD0iMjAiIHk9IjM1IiBmaWxsPSIjNTQ2RTdBIiB3aWR0aD0iOCIgaGVpZ2h0PSIyIi8+JiN4YTs8L3N2Zz4=;labelBackgroundColor=#ffffff;" parent="1" vertex="1">
          <mxGeometry x="824" y="460" width="48" height="48" as="geometry" />
        </mxCell>
        <mxCell id="8--HhbSZYtI3ddgJnD71-11" value="Internet" style="shape=image;verticalLabelPosition=bottom;verticalAlign=top;imageAspect=0;aspect=fixed;image=data:image/svg+xml,PHN2ZyB4bWxucz0iaHR0cDovL3d3dy53My5vcmcvMjAwMC9zdmciIHZlcnNpb249IjEiIHZpZXdCb3g9IjAgMCA0OCA0OCIgZW5hYmxlLWJhY2tncm91bmQ9Im5ldyAwIDAgNDggNDgiPiYjeGE7ICAgIDxwYXRoIGZpbGw9IiM3Q0IzNDIiIGQ9Ik0yNCw0QzEzLDQsNCwxMyw0LDI0czksMjAsMjAsMjBzMjAtOSwyMC0yMFMzNSw0LDI0LDR6Ii8+JiN4YTsgICAgPHBhdGggZmlsbD0iIzAyNzdCRCIgZD0iTTQ1LDI0YzAsMTEuNy05LjUsMjEtMjEsMjFTMywzNS43LDMsMjRTMTIuMywzLDI0LDNTNDUsMTIuMyw0NSwyNHogTTIzLjgsMzMuN2MwLTAuNC0wLjItMC42LTAuNi0wLjggYy0xLjMtMC40LTIuNS0wLjQtMy42LTEuNWMtMC4yLTAuNC0wLjItMC44LTAuNC0xLjNjLTAuNC0wLjQtMS41LTAuNi0yLjEtMC44Yy0wLjgsMC0xLjcsMC0yLjcsMGMtMC40LDAtMS4xLDAtMS41LDAgYy0wLjYtMC4yLTEuMS0xLjEtMS41LTEuN2MwLTAuMiwwLTAuNi0wLjQtMC42Yy0wLjQtMC4yLTAuOCwwLjItMS4zLDBjLTAuMi0wLjItMC4yLTAuNC0wLjItMC42YzAtMC42LDAuNC0xLjMsMC44LTEuNyBjMC42LTAuNCwxLjMsMC4yLDEuOSwwLjJjMC4yLDAsMC4yLDAsMC40LDAuMmMwLjYsMC4yLDAuOCwxLDAuOCwxLjdjMCwwLjIsMCwwLjQsMCwwLjRjMCwwLjIsMC4yLDAuMiwwLjQsMC4yIGMwLjItMS4xLDAuMi0yLjEsMC40LTMuMmMwLTEuMywxLjMtMi41LDIuMy0yLjljMC40LTAuMiwwLjYsMC4yLDEuMSwwYzEuMy0wLjQsNC40LTEuNywzLjgtMy40Yy0wLjQtMS41LTEuNy0yLjktMy40LTIuNyBjLTAuNCwwLjItMC42LDAuNC0xLDAuNmMtMC42LDAuNC0xLjksMS43LTIuNSwxLjdjLTEuMS0wLjItMS4xLTEuNy0wLjgtMi4zYzAuMi0wLjgsMi4xLTMuNiwzLjQtMy4xYzAuMiwwLjIsMC42LDAuNiwwLjgsMC44IGMwLjQsMC4yLDEuMSwwLjIsMS43LDAuMmMwLjIsMCwwLjQsMCwwLjYtMC4yYzAuMi0wLjIsMC4yLTAuMiwwLjItMC40YzAtMC42LTAuNi0xLjMtMS0xLjdjLTAuNC0wLjQtMS4xLTAuOC0xLjctMS4xIGMtMi4xLTAuNi01LjUsMC4yLTcuMSwxLjdzLTIuOSw0LTMuOCw2LjFjLTAuNCwxLjMtMC44LDIuOS0xLDQuNGMtMC4yLDEtMC40LDEuOSwwLjIsMi45YzAuNiwxLjMsMS45LDIuNSwzLjIsMy40IGMwLjgsMC42LDIuNSwwLjYsMy40LDEuN2MwLjYsMC44LDAuNCwxLjksMC40LDIuOWMwLDEuMywwLjgsMi4zLDEuMywzLjRjMC4yLDAuNiwwLjQsMS41LDAuNiwyLjFjMCwwLjIsMC4yLDEuNSwwLjIsMS43IGMxLjMsMC42LDIuMywxLjMsMy44LDEuN2MwLjIsMCwxLTEuMywxLTEuNWMwLjYtMC42LDEuMS0xLjUsMS43LTEuOWMwLjQtMC4yLDAuOC0wLjQsMS4zLTAuOGMwLjQtMC40LDAuNi0xLjMsMC44LTEuOSBDMjMuOCwzNS4xLDI0LDM0LjMsMjMuOCwzMy43eiBNMjQuMiwxNC4zYzAuMiwwLDAuNC0wLjIsMC44LTAuNGMwLjYtMC40LDEuMy0xLjEsMS45LTEuNWMwLjYtMC40LDEuMy0xLjEsMS43LTEuNSBjMC42LTAuNCwxLjEtMS4zLDEuMy0xLjljMC4yLTAuNCwwLjgtMS4zLDAuNi0xLjljLTAuMi0wLjQtMS4zLTAuNi0xLjctMC44Yy0xLjctMC40LTMuMS0wLjYtNC44LTAuNmMtMC42LDAtMS41LDAuMi0xLjcsMC44IGMtMC4yLDEuMSwwLjYsMC44LDEuNSwxLjFjMCwwLDAuMiwxLjcsMC4yLDEuOWMwLjIsMS0wLjQsMS43LTAuNCwyLjdjMCwwLjYsMCwxLjcsMC40LDIuMUwyNC4yLDE0LjN6IE00MS44LDI5IGMwLjItMC40LDAuMi0xLjEsMC40LTEuNWMwLjItMSwwLjItMi4xLDAuMi0zLjFjMC0yLjEtMC4yLTQuMi0wLjgtNi4xYy0wLjQtMC42LTAuNi0xLjMtMC44LTEuOWMtMC40LTEuMS0xLTIuMS0xLjktMi45IGMtMC44LTEuMS0xLjktNC0zLjgtMy4xYy0wLjYsMC4yLTEsMS0xLjUsMS41Yy0wLjQsMC42LTAuOCwxLjMtMS4zLDEuOWMtMC4yLDAuMi0wLjQsMC42LTAuMiwwLjhjMCwwLjIsMC4yLDAuMiwwLjQsMC4yIGMwLjQsMC4yLDAuNiwwLjIsMSwwLjRjMC4yLDAsMC40LDAuMiwwLjIsMC40YzAsMCwwLDAuMi0wLjIsMC4yYy0xLDEuMS0yLjEsMS45LTMuMSwyLjljLTAuMiwwLjItMC40LDAuNi0wLjQsMC44IGMwLDAuMiwwLjIsMC4yLDAuMiwwLjRjMCwwLjItMC4yLDAuMi0wLjQsMC40Yy0wLjQsMC4yLTAuOCwwLjQtMS4xLDAuNmMtMC4yLDAuNCwwLDEuMS0wLjIsMS41Yy0wLjIsMS4xLTAuOCwxLjktMS4zLDIuOSBjLTAuNCwwLjYtMC42LDEuMy0xLDEuOWMwLDAuOC0wLjIsMS41LDAuMiwyLjFjMSwxLjUsMi45LDAuNiw0LjQsMS4zYzAuNCwwLjIsMC44LDAuMiwxLjEsMC42YzAuNiwwLjYsMC42LDEuNywwLjgsMi4zIGMwLjIsMC44LDAuNCwxLjcsMC44LDIuNWMwLjIsMSwwLjYsMi4xLDAuOCwyLjljMS45LTEuNSwzLjYtMy4xLDQuOC01LjJDNDAuNiwzMi40LDQxLjIsMzAuNyw0MS44LDI5eiIvPiYjeGE7PC9zdmc+;labelBackgroundColor=#ffffff;" parent="1" vertex="1">
          <mxGeometry x="684" y="250" width="48" height="48" as="geometry" />
        </mxCell>
        <mxCell id="8--HhbSZYtI3ddgJnD71-12" value="Security" style="shape=image;verticalLabelPosition=bottom;verticalAlign=top;imageAspect=0;aspect=fixed;image=data:image/svg+xml,PHN2ZyB4bWxucz0iaHR0cDovL3d3dy53My5vcmcvMjAwMC9zdmciIHZlcnNpb249IjEiIHZpZXdCb3g9IjAgMCA0OCA0OCIgZW5hYmxlLWJhY2tncm91bmQ9Im5ldyAwIDAgNDggNDgiPiYjeGE7ICAgIDxwYXRoIGZpbGw9IiM0MjQyNDIiIGQ9Ik0yNCw0Yy01LjUsMC0xMCw0LjUtMTAsMTB2NGg0di00YzAtMy4zLDIuNy02LDYtNnM2LDIuNyw2LDZ2NGg0di00QzM0LDguNSwyOS41LDQsMjQsNHoiLz4mI3hhOyAgICA8cGF0aCBmaWxsPSIjRkI4QzAwIiBkPSJNMzYsNDRIMTJjLTIuMiwwLTQtMS44LTQtNFYyMmMwLTIuMiwxLjgtNCw0LTRoMjRjMi4yLDAsNCwxLjgsNCw0djE4QzQwLDQyLjIsMzguMiw0NCwzNiw0NHoiLz4mI3hhOyAgICA8Y2lyY2xlIGZpbGw9IiNDNzZFMDAiIGN4PSIyNCIgY3k9IjMxIiByPSIzIi8+JiN4YTs8L3N2Zz4=;labelBackgroundColor=#ffffff;" parent="1" vertex="1">
          <mxGeometry x="323" y="220" width="48" height="48" as="geometry" />
        </mxCell>
        <mxCell id="8--HhbSZYtI3ddgJnD71-13" value="Calendar" style="shape=image;verticalLabelPosition=bottom;verticalAlign=top;imageAspect=0;aspect=fixed;image=data:image/svg+xml,PHN2ZyB4bWxucz0iaHR0cDovL3d3dy53My5vcmcvMjAwMC9zdmciIHZlcnNpb249IjEiIHZpZXdCb3g9IjAgMCA0OCA0OCIgZW5hYmxlLWJhY2tncm91bmQ9Im5ldyAwIDAgNDggNDgiPiYjeGE7ICAgIDxwYXRoIGZpbGw9IiNDRkQ4REMiIGQ9Ik01LDM4VjE0aDM4djI0YzAsMi4yLTEuOCw0LTQsNEg5QzYuOCw0Miw1LDQwLjIsNSwzOHoiLz4mI3hhOyAgICA8cGF0aCBmaWxsPSIjRjQ0MzM2IiBkPSJNNDMsMTB2Nkg1di02YzAtMi4yLDEuOC00LDQtNGgzMEM0MS4yLDYsNDMsNy44LDQzLDEweiIvPiYjeGE7ICAgIDxnIGZpbGw9IiNCNzFDMUMiPiYjeGE7ICAgICAgICA8Y2lyY2xlIGN4PSIzMyIgY3k9IjEwIiByPSIzIi8+JiN4YTsgICAgICAgIDxjaXJjbGUgY3g9IjE1IiBjeT0iMTAiIHI9IjMiLz4mI3hhOyAgICA8L2c+JiN4YTsgICAgPGcgZmlsbD0iI0IwQkVDNSI+JiN4YTsgICAgICAgIDxwYXRoIGQ9Ik0zMywzYy0xLjEsMC0yLDAuOS0yLDJ2NWMwLDEuMSwwLjksMiwyLDJzMi0wLjksMi0yVjVDMzUsMy45LDM0LjEsMywzMywzeiIvPiYjeGE7ICAgICAgICA8cGF0aCBkPSJNMTUsM2MtMS4xLDAtMiwwLjktMiwydjVjMCwxLjEsMC45LDIsMiwyczItMC45LDItMlY1QzE3LDMuOSwxNi4xLDMsMTUsM3oiLz4mI3hhOyAgICA8L2c+JiN4YTsgICAgPGcgZmlsbD0iI0IwQkVDNSI+JiN4YTsgICAgICAgIDxyZWN0IHg9IjEzIiB5PSIyMSIgd2lkdGg9IjYiIGhlaWdodD0iNiIvPiYjeGE7ICAgICAgICA8cmVjdCB4PSIyMSIgeT0iMjEiIHdpZHRoPSI2IiBoZWlnaHQ9IjYiLz4mI3hhOyAgICAgICAgPHJlY3QgeD0iMjkiIHk9IjIxIiB3aWR0aD0iNiIgaGVpZ2h0PSI2Ii8+JiN4YTsgICAgICAgIDxyZWN0IHg9IjEzIiB5PSIyOSIgd2lkdGg9IjYiIGhlaWdodD0iNiIvPiYjeGE7ICAgICAgICA8cmVjdCB4PSIyMSIgeT0iMjkiIHdpZHRoPSI2IiBoZWlnaHQ9IjYiLz4mI3hhOyAgICA8L2c+JiN4YTsgICAgPHJlY3QgeD0iMjkiIHk9IjI5IiBmaWxsPSIjRjQ0MzM2IiB3aWR0aD0iNiIgaGVpZ2h0PSI2Ii8+JiN4YTs8L3N2Zz4=;labelBackgroundColor=#ffffff;" parent="1" vertex="1">
          <mxGeometry x="810" y="130" width="48" height="48" as="geometry" />
        </mxCell>
        <mxCell id="8--HhbSZYtI3ddgJnD71-14" value="Analytics" style="shape=image;verticalLabelPosition=bottom;verticalAlign=top;imageAspect=0;aspect=fixed;image=data:image/svg+xml,PHN2ZyB4bWxucz0iaHR0cDovL3d3dy53My5vcmcvMjAwMC9zdmciIHZlcnNpb249IjEiIHZpZXdCb3g9IjAgMCA0OCA0OCIgZW5hYmxlLWJhY2tncm91bmQ9Im5ldyAwIDAgNDggNDgiPiYjeGE7ICAgIDxwb2x5Z29uIGZpbGw9IiM5MENBRjkiIHBvaW50cz0iMzYuOSwxMy44IDM1LjEsMTAuMiA3LjUsMjQgMzUuMSwzNy44IDM2LjksMzQuMiAxNi41LDI0Ii8+JiN4YTsgICAgPHJlY3QgeD0iNiIgeT0iMTgiIGZpbGw9IiNEODFCNjAiIHdpZHRoPSIxMiIgaGVpZ2h0PSIxMiIvPiYjeGE7ICAgIDxnIGZpbGw9IiMyMTk2RjMiPiYjeGE7ICAgICAgICA8cmVjdCB4PSIzMCIgeT0iNiIgd2lkdGg9IjEyIiBoZWlnaHQ9IjEyIi8+JiN4YTsgICAgICAgIDxyZWN0IHg9IjMwIiB5PSIzMCIgd2lkdGg9IjEyIiBoZWlnaHQ9IjEyIi8+JiN4YTsgICAgPC9nPiYjeGE7PC9zdmc+;labelBackgroundColor=#ffffff;" parent="1" vertex="1">
          <mxGeometry x="576" y="514" width="48" height="48" as="geometry" />
        </mxCell>
        <mxCell id="8--HhbSZYtI3ddgJnD71-15" value="Store" style="shape=image;verticalLabelPosition=bottom;verticalAlign=top;imageAspect=0;aspect=fixed;image=data:image/svg+xml,PHN2ZyB4bWxucz0iaHR0cDovL3d3dy53My5vcmcvMjAwMC9zdmciIHZlcnNpb249IjEiIHZpZXdCb3g9IjAgMCA0OCA0OCIgZW5hYmxlLWJhY2tncm91bmQ9Im5ldyAwIDAgNDggNDgiPiYjeGE7ICAgIDxyZWN0IHg9IjUiIHk9IjE5IiBmaWxsPSIjQ0ZEOERDIiB3aWR0aD0iMzgiIGhlaWdodD0iMTkiLz4mI3hhOyAgICA8cmVjdCB4PSI1IiB5PSIzOCIgZmlsbD0iI0IwQkVDNSIgd2lkdGg9IjM4IiBoZWlnaHQ9IjQiLz4mI3hhOyAgICA8cmVjdCB4PSIyNyIgeT0iMjQiIGZpbGw9IiM0NTVBNjQiIHdpZHRoPSIxMiIgaGVpZ2h0PSIxOCIvPiYjeGE7ICAgIDxyZWN0IHg9IjkiIHk9IjI0IiBmaWxsPSIjRTNGMkZEIiB3aWR0aD0iMTQiIGhlaWdodD0iMTEiLz4mI3hhOyAgICA8cmVjdCB4PSIxMCIgeT0iMjUiIGZpbGw9IiMxRTg4RTUiIHdpZHRoPSIxMiIgaGVpZ2h0PSI5Ii8+JiN4YTsgICAgPHBhdGggZmlsbD0iIzkwQTRBRSIgZD0iTTM2LjUsMzMuNWMtMC4zLDAtMC41LDAuMi0wLjUsMC41djJjMCwwLjMsMC4yLDAuNSwwLjUsMC41UzM3LDM2LjMsMzcsMzZ2LTJDMzcsMzMuNywzNi44LDMzLjUsMzYuNSwzMy41eiIvPiYjeGE7ICAgIDxnIGZpbGw9IiM1NThCMkYiPiYjeGE7ICAgICAgICA8Y2lyY2xlIGN4PSIyNCIgY3k9IjE5IiByPSIzIi8+JiN4YTsgICAgICAgIDxjaXJjbGUgY3g9IjM2IiBjeT0iMTkiIHI9IjMiLz4mI3hhOyAgICAgICAgPGNpcmNsZSBjeD0iMTIiIGN5PSIxOSIgcj0iMyIvPiYjeGE7ICAgIDwvZz4mI3hhOyAgICA8cGF0aCBmaWxsPSIjN0NCMzQyIiBkPSJNNDAsNkg4QzYuOSw2LDYsNi45LDYsOHYzaDM2VjhDNDIsNi45LDQxLjEsNiw0MCw2eiIvPiYjeGE7ICAgIDxyZWN0IHg9IjIxIiB5PSIxMSIgZmlsbD0iIzdDQjM0MiIgd2lkdGg9IjYiIGhlaWdodD0iOCIvPiYjeGE7ICAgIDxwb2x5Z29uIGZpbGw9IiM3Q0IzNDIiIHBvaW50cz0iMzcsMTEgMzIsMTEgMzMsMTkgMzksMTkiLz4mI3hhOyAgICA8cG9seWdvbiBmaWxsPSIjN0NCMzQyIiBwb2ludHM9IjExLDExIDE2LDExIDE1LDE5IDksMTkiLz4mI3hhOyAgICA8ZyBmaWxsPSIjRkZBMDAwIj4mI3hhOyAgICAgICAgPGNpcmNsZSBjeD0iMzAiIGN5PSIxOSIgcj0iMyIvPiYjeGE7ICAgICAgICA8cGF0aCBkPSJNNDUsMTljMCwxLjctMS4zLDMtMywzcy0zLTEuMy0zLTNzMS4zLTMsMy0zTDQ1LDE5eiIvPiYjeGE7ICAgICAgICA8Y2lyY2xlIGN4PSIxOCIgY3k9IjE5IiByPSIzIi8+JiN4YTsgICAgICAgIDxwYXRoIGQ9Ik0zLDE5YzAsMS43LDEuMywzLDMsM3MzLTEuMywzLTNzLTEuMy0zLTMtM0wzLDE5eiIvPiYjeGE7ICAgIDwvZz4mI3hhOyAgICA8ZyBmaWxsPSIjRkZDMTA3Ij4mI3hhOyAgICAgICAgPHBvbHlnb24gcG9pbnRzPSIzMiwxMSAyNywxMSAyNywxOSAzMywxOSIvPiYjeGE7ICAgICAgICA8cG9seWdvbiBwb2ludHM9IjQyLDExIDM3LDExIDM5LDE5IDQ1LDE5Ii8+JiN4YTsgICAgICAgIDxwb2x5Z29uIHBvaW50cz0iMTYsMTEgMjEsMTEgMjEsMTkgMTUsMTkiLz4mI3hhOyAgICAgICAgPHBvbHlnb24gcG9pbnRzPSI2LDExIDExLDExIDksMTkgMywxOSIvPiYjeGE7ICAgIDwvZz4mI3hhOzwvc3ZnPg==;labelBackgroundColor=#ffffff;" parent="1" vertex="1">
          <mxGeometry x="458" y="508" width="48" height="48" as="geometry" />
        </mxCell>
        <mxCell id="8--HhbSZYtI3ddgJnD71-16" value="User" style="shape=image;verticalLabelPosition=bottom;verticalAlign=top;imageAspect=0;aspect=fixed;image=data:image/svg+xml,PHN2ZyB4bWxucz0iaHR0cDovL3d3dy53My5vcmcvMjAwMC9zdmciIHZlcnNpb249IjEiIHZpZXdCb3g9IjAgMCA0OCA0OCIgZW5hYmxlLWJhY2tncm91bmQ9Im5ldyAwIDAgNDggNDgiPiYjeGE7ICAgIDxwb2x5Z29uIGZpbGw9IiNGRjk4MDAiIHBvaW50cz0iMjQsMzcgMTksMzEgMTksMjUgMjksMjUgMjksMzEiLz4mI3hhOyAgICA8ZyBmaWxsPSIjRkZBNzI2Ij4mI3hhOyAgICAgICAgPGNpcmNsZSBjeD0iMzMiIGN5PSIxOSIgcj0iMiIvPiYjeGE7ICAgICAgICA8Y2lyY2xlIGN4PSIxNSIgY3k9IjE5IiByPSIyIi8+JiN4YTsgICAgPC9nPiYjeGE7ICAgIDxwYXRoIGZpbGw9IiNGRkI3NEQiIGQ9Ik0zMywxM2MwLTcuNi0xOC01LTE4LDBjMCwxLjEsMCw1LjksMCw3YzAsNSw0LDksOSw5czktNCw5LTlDMzMsMTguOSwzMywxNC4xLDMzLDEzeiIvPiYjeGE7ICAgIDxwYXRoIGZpbGw9IiM0MjQyNDIiIGQ9Ik0yNCw0Yy02LjEsMC0xMCw0LjktMTAsMTFjMCwwLjgsMCwyLjMsMCwyLjNsMiwxLjd2LTVsMTItNGw0LDR2NWwyLTEuN2MwLDAsMC0xLjUsMC0yLjNjMC00LTEtOC02LTlsLTEtMiBIMjR6Ii8+JiN4YTsgICAgPGcgZmlsbD0iIzc4NDcxOSI+JiN4YTsgICAgICAgIDxjaXJjbGUgY3g9IjI4IiBjeT0iMTkiIHI9IjEiLz4mI3hhOyAgICAgICAgPGNpcmNsZSBjeD0iMjAiIGN5PSIxOSIgcj0iMSIvPiYjeGE7ICAgIDwvZz4mI3hhOyAgICA8cG9seWdvbiBmaWxsPSIjZmZmIiBwb2ludHM9IjI0LDQzIDE5LDMxIDI0LDMyIDI5LDMxIi8+JiN4YTsgICAgPHBvbHlnb24gZmlsbD0iI0QzMkYyRiIgcG9pbnRzPSIyMywzNSAyMi4zLDM5LjUgMjQsNDMuNSAyNS43LDM5LjUgMjUsMzUgMjYsMzQgMjQsMzIgMjIsMzQiLz4mI3hhOyAgICA8cGF0aCBmaWxsPSIjNTQ2RTdBIiBkPSJNMjksMzFMMjksMzFsLTUsMTJsLTUtMTJjMCwwLTExLDItMTEsMTNoMzJDNDAsMzMsMjksMzEsMjksMzF6Ii8+JiN4YTs8L3N2Zz4=;labelBackgroundColor=#ffffff;" parent="1" vertex="1">
          <mxGeometry x="204" y="94" width="48" height="48" as="geometry" />
        </mxCell>
        <mxCell id="8--HhbSZYtI3ddgJnD71-17" value="User" style="shape=image;verticalLabelPosition=bottom;verticalAlign=top;imageAspect=0;aspect=fixed;image=data:image/svg+xml,PHN2ZyB4bWxucz0iaHR0cDovL3d3dy53My5vcmcvMjAwMC9zdmciIHZlcnNpb249IjEiIHZpZXdCb3g9IjAgMCA0OCA0OCIgZW5hYmxlLWJhY2tncm91bmQ9Im5ldyAwIDAgNDggNDgiPiYjeGE7ICAgIDxwb2x5Z29uIGZpbGw9IiNGRjk4MDAiIHBvaW50cz0iMjQsMzcgMTksMzEgMTksMjUgMjksMjUgMjksMzEiLz4mI3hhOyAgICA8ZyBmaWxsPSIjRkZBNzI2Ij4mI3hhOyAgICAgICAgPGNpcmNsZSBjeD0iMzMiIGN5PSIxOSIgcj0iMiIvPiYjeGE7ICAgICAgICA8Y2lyY2xlIGN4PSIxNSIgY3k9IjE5IiByPSIyIi8+JiN4YTsgICAgPC9nPiYjeGE7ICAgIDxwYXRoIGZpbGw9IiNGRkI3NEQiIGQ9Ik0zMywxM2MwLTcuNi0xOC01LTE4LDBjMCwxLjEsMCw1LjksMCw3YzAsNSw0LDksOSw5czktNCw5LTlDMzMsMTguOSwzMywxNC4xLDMzLDEzeiIvPiYjeGE7ICAgIDxwYXRoIGZpbGw9IiM0MjQyNDIiIGQ9Ik0yNCw0Yy02LjEsMC0xMCw0LjktMTAsMTFjMCwwLjgsMCwyLjMsMCwyLjNsMiwxLjd2LTVsMTItNGw0LDR2NWwyLTEuN2MwLDAsMC0xLjUsMC0yLjNjMC00LTEtOC02LTlsLTEtMiBIMjR6Ii8+JiN4YTsgICAgPGcgZmlsbD0iIzc4NDcxOSI+JiN4YTsgICAgICAgIDxjaXJjbGUgY3g9IjI4IiBjeT0iMTkiIHI9IjEiLz4mI3hhOyAgICAgICAgPGNpcmNsZSBjeD0iMjAiIGN5PSIxOSIgcj0iMSIvPiYjeGE7ICAgIDwvZz4mI3hhOyAgICA8cG9seWdvbiBmaWxsPSIjZmZmIiBwb2ludHM9IjI0LDQzIDE5LDMxIDI0LDMyIDI5LDMxIi8+JiN4YTsgICAgPHBvbHlnb24gZmlsbD0iI0QzMkYyRiIgcG9pbnRzPSIyMywzNSAyMi4zLDM5LjUgMjQsNDMuNSAyNS43LDM5LjUgMjUsMzUgMjYsMzQgMjQsMzIgMjIsMzQiLz4mI3hhOyAgICA8cGF0aCBmaWxsPSIjNTQ2RTdBIiBkPSJNMjksMzFMMjksMzFsLTUsMTJsLTUtMTJjMCwwLTExLDItMTEsMTNoMzJDNDAsMzMsMjksMzEsMjksMzF6Ii8+JiN4YTs8L3N2Zz4=;labelBackgroundColor=#ffffff;" parent="1" vertex="1">
          <mxGeometry x="394" y="106" width="48" height="48" as="geometry" />
        </mxCell>
        <mxCell id="8--HhbSZYtI3ddgJnD71-18" value="User" style="shape=image;verticalLabelPosition=bottom;verticalAlign=top;imageAspect=0;aspect=fixed;image=data:image/svg+xml,PHN2ZyB4bWxucz0iaHR0cDovL3d3dy53My5vcmcvMjAwMC9zdmciIHZlcnNpb249IjEiIHZpZXdCb3g9IjAgMCA0OCA0OCIgZW5hYmxlLWJhY2tncm91bmQ9Im5ldyAwIDAgNDggNDgiPiYjeGE7ICAgIDxwb2x5Z29uIGZpbGw9IiNGRjk4MDAiIHBvaW50cz0iMjQsMzcgMTksMzEgMTksMjUgMjksMjUgMjksMzEiLz4mI3hhOyAgICA8ZyBmaWxsPSIjRkZBNzI2Ij4mI3hhOyAgICAgICAgPGNpcmNsZSBjeD0iMzMiIGN5PSIxOSIgcj0iMiIvPiYjeGE7ICAgICAgICA8Y2lyY2xlIGN4PSIxNSIgY3k9IjE5IiByPSIyIi8+JiN4YTsgICAgPC9nPiYjeGE7ICAgIDxwYXRoIGZpbGw9IiNGRkI3NEQiIGQ9Ik0zMywxM2MwLTcuNi0xOC01LTE4LDBjMCwxLjEsMCw1LjksMCw3YzAsNSw0LDksOSw5czktNCw5LTlDMzMsMTguOSwzMywxNC4xLDMzLDEzeiIvPiYjeGE7ICAgIDxwYXRoIGZpbGw9IiM0MjQyNDIiIGQ9Ik0yNCw0Yy02LjEsMC0xMCw0LjktMTAsMTFjMCwwLjgsMCwyLjMsMCwyLjNsMiwxLjd2LTVsMTItNGw0LDR2NWwyLTEuN2MwLDAsMC0xLjUsMC0yLjNjMC00LTEtOC02LTlsLTEtMiBIMjR6Ii8+JiN4YTsgICAgPGcgZmlsbD0iIzc4NDcxOSI+JiN4YTsgICAgICAgIDxjaXJjbGUgY3g9IjI4IiBjeT0iMTkiIHI9IjEiLz4mI3hhOyAgICAgICAgPGNpcmNsZSBjeD0iMjAiIGN5PSIxOSIgcj0iMSIvPiYjeGE7ICAgIDwvZz4mI3hhOyAgICA8cG9seWdvbiBmaWxsPSIjZmZmIiBwb2ludHM9IjI0LDQzIDE5LDMxIDI0LDMyIDI5LDMxIi8+JiN4YTsgICAgPHBvbHlnb24gZmlsbD0iI0QzMkYyRiIgcG9pbnRzPSIyMywzNSAyMi4zLDM5LjUgMjQsNDMuNSAyNS43LDM5LjUgMjUsMzUgMjYsMzQgMjQsMzIgMjIsMzQiLz4mI3hhOyAgICA8cGF0aCBmaWxsPSIjNTQ2RTdBIiBkPSJNMjksMzFMMjksMzFsLTUsMTJsLTUtMTJjMCwwLTExLDItMTEsMTNoMzJDNDAsMzMsMjksMzEsMjksMzF6Ii8+JiN4YTs8L3N2Zz4=;labelBackgroundColor=#ffffff;" parent="1" vertex="1">
          <mxGeometry x="299" y="70" width="48" height="48" as="geometry" />
        </mxCell>
        <mxCell id="8--HhbSZYtI3ddgJnD71-19" value="Security" style="shape=image;verticalLabelPosition=bottom;verticalAlign=top;imageAspect=0;aspect=fixed;image=data:image/svg+xml,PHN2ZyB4bWxucz0iaHR0cDovL3d3dy53My5vcmcvMjAwMC9zdmciIHZlcnNpb249IjEiIHZpZXdCb3g9IjAgMCA0OCA0OCIgZW5hYmxlLWJhY2tncm91bmQ9Im5ldyAwIDAgNDggNDgiPiYjeGE7ICAgIDxwYXRoIGZpbGw9IiM0MjQyNDIiIGQ9Ik0yNCw0Yy01LjUsMC0xMCw0LjUtMTAsMTB2NGg0di00YzAtMy4zLDIuNy02LDYtNnM2LDIuNyw2LDZ2NGg0di00QzM0LDguNSwyOS41LDQsMjQsNHoiLz4mI3hhOyAgICA8cGF0aCBmaWxsPSIjRkI4QzAwIiBkPSJNMzYsNDRIMTJjLTIuMiwwLTQtMS44LTQtNFYyMmMwLTIuMiwxLjgtNCw0LTRoMjRjMi4yLDAsNCwxLjgsNCw0djE4QzQwLDQyLjIsMzguMiw0NCwzNiw0NHoiLz4mI3hhOyAgICA8Y2lyY2xlIGZpbGw9IiNDNzZFMDAiIGN4PSIyNCIgY3k9IjMxIiByPSIzIi8+JiN4YTs8L3N2Zz4=;labelBackgroundColor=#ffffff;" parent="1" vertex="1">
          <mxGeometry x="550" y="378" width="48" height="48" as="geometry" />
        </mxCell>
        <mxCell id="PPBAMTf_8ddzBlsgRuzx-24" value="100%" style="edgeStyle=orthogonalEdgeStyle;rounded=0;orthogonalLoop=1;jettySize=auto;html=1;entryX=0;entryY=0.5;entryDx=0;entryDy=0;" edge="1" parent="1" source="PPBAMTf_8ddzBlsgRuzx-1" target="PPBAMTf_8ddzBlsgRuzx-18">
          <mxGeometry relative="1" as="geometry" />
        </mxCell>
        <mxCell id="PPBAMTf_8ddzBlsgRuzx-29" style="edgeStyle=orthogonalEdgeStyle;rounded=0;orthogonalLoop=1;jettySize=auto;html=1;entryX=0.5;entryY=1;entryDx=0;entryDy=0;" edge="1" parent="1" source="PPBAMTf_8ddzBlsgRuzx-1" target="PPBAMTf_8ddzBlsgRuzx-19">
          <mxGeometry relative="1" as="geometry">
            <Array as="points">
              <mxPoint x="347" y="980" />
              <mxPoint x="644" y="980" />
            </Array>
          </mxGeometry>
        </mxCell>
        <mxCell id="PPBAMTf_8ddzBlsgRuzx-31" value="用户有手机并且风控pass：?%(之前没有这个链路)" style="edgeLabel;html=1;align=center;verticalAlign=middle;resizable=0;points=[];" vertex="1" connectable="0" parent="PPBAMTf_8ddzBlsgRuzx-29">
          <mxGeometry x="-0.3114" y="1" relative="1" as="geometry">
            <mxPoint x="63" as="offset" />
          </mxGeometry>
        </mxCell>
        <mxCell id="PPBAMTf_8ddzBlsgRuzx-32" style="edgeStyle=orthogonalEdgeStyle;rounded=0;orthogonalLoop=1;jettySize=auto;html=1;entryX=0.5;entryY=1;entryDx=0;entryDy=0;strokeColor=#00CC00;" edge="1" parent="1" source="PPBAMTf_8ddzBlsgRuzx-1" target="PPBAMTf_8ddzBlsgRuzx-20">
          <mxGeometry relative="1" as="geometry">
            <Array as="points">
              <mxPoint x="347" y="1030" />
              <mxPoint x="793" y="1030" />
            </Array>
          </mxGeometry>
        </mxCell>
        <mxCell id="PPBAMTf_8ddzBlsgRuzx-33" value="单人脸:?% 没有数据" style="edgeLabel;html=1;align=center;verticalAlign=middle;resizable=0;points=[];" vertex="1" connectable="0" parent="PPBAMTf_8ddzBlsgRuzx-32">
          <mxGeometry x="-0.3473" relative="1" as="geometry">
            <mxPoint x="1" as="offset" />
          </mxGeometry>
        </mxCell>
        <mxCell id="PPBAMTf_8ddzBlsgRuzx-38" style="edgeStyle=orthogonalEdgeStyle;rounded=0;orthogonalLoop=1;jettySize=auto;html=1;entryX=0.5;entryY=1;entryDx=0;entryDy=0;strokeColor=#007FFF;" edge="1" parent="1" source="PPBAMTf_8ddzBlsgRuzx-1" target="PPBAMTf_8ddzBlsgRuzx-22">
          <mxGeometry relative="1" as="geometry">
            <mxPoint x="910" y="1090" as="targetPoint" />
            <Array as="points">
              <mxPoint x="347" y="1130" />
              <mxPoint x="1090" y="1130" />
            </Array>
          </mxGeometry>
        </mxCell>
        <mxCell id="PPBAMTf_8ddzBlsgRuzx-39" value="在流程中" style="edgeLabel;html=1;align=center;verticalAlign=middle;resizable=0;points=[];" vertex="1" connectable="0" parent="PPBAMTf_8ddzBlsgRuzx-38">
          <mxGeometry x="-0.5109" y="-1" relative="1" as="geometry">
            <mxPoint as="offset" />
          </mxGeometry>
        </mxCell>
        <mxCell id="PPBAMTf_8ddzBlsgRuzx-76" value="40%" style="edgeLabel;html=1;align=center;verticalAlign=middle;resizable=0;points=[];" vertex="1" connectable="0" parent="PPBAMTf_8ddzBlsgRuzx-38">
          <mxGeometry x="-0.2799" y="2" relative="1" as="geometry">
            <mxPoint as="offset" />
          </mxGeometry>
        </mxCell>
        <mxCell id="PPBAMTf_8ddzBlsgRuzx-1" value="cl-onboard" style="image;aspect=fixed;perimeter=ellipsePerimeter;html=1;align=center;shadow=0;dashed=0;fontColor=#4277BB;labelBackgroundColor=default;fontSize=12;spacingTop=3;image=img/lib/ibm/users/browser.svg;flipV=0;" vertex="1" parent="1">
          <mxGeometry x="317" y="860" width="60" height="60" as="geometry" />
        </mxCell>
        <mxCell id="PPBAMTf_8ddzBlsgRuzx-2" value="MyAccount" style="shape=image;verticalLabelPosition=bottom;verticalAlign=top;imageAspect=0;aspect=fixed;image=data:image/svg+xml,PHN2ZyB4bWxucz0iaHR0cDovL3d3dy53My5vcmcvMjAwMC9zdmciIHZlcnNpb249IjEiIHZpZXdCb3g9IjAgMCA0OCA0OCIgZW5hYmxlLWJhY2tncm91bmQ9Im5ldyAwIDAgNDggNDgiPiYjeGE7ICAgIDxwb2x5Z29uIGZpbGw9IiNGRjk4MDAiIHBvaW50cz0iMjQsMzcgMTksMzEgMTksMjUgMjksMjUgMjksMzEiLz4mI3hhOyAgICA8ZyBmaWxsPSIjRkZBNzI2Ij4mI3hhOyAgICAgICAgPGNpcmNsZSBjeD0iMzMiIGN5PSIxOSIgcj0iMiIvPiYjeGE7ICAgICAgICA8Y2lyY2xlIGN4PSIxNSIgY3k9IjE5IiByPSIyIi8+JiN4YTsgICAgPC9nPiYjeGE7ICAgIDxwYXRoIGZpbGw9IiNGRkI3NEQiIGQ9Ik0zMywxM2MwLTcuNi0xOC01LTE4LDBjMCwxLjEsMCw1LjksMCw3YzAsNSw0LDksOSw5czktNCw5LTlDMzMsMTguOSwzMywxNC4xLDMzLDEzeiIvPiYjeGE7ICAgIDxwYXRoIGZpbGw9IiM0MjQyNDIiIGQ9Ik0yNCw0Yy02LjEsMC0xMCw0LjktMTAsMTFjMCwwLjgsMCwyLjMsMCwyLjNsMiwxLjd2LTVsMTItNGw0LDR2NWwyLTEuN2MwLDAsMC0xLjUsMC0yLjNjMC00LTEtOC02LTlsLTEtMiBIMjR6Ii8+JiN4YTsgICAgPGcgZmlsbD0iIzc4NDcxOSI+JiN4YTsgICAgICAgIDxjaXJjbGUgY3g9IjI4IiBjeT0iMTkiIHI9IjEiLz4mI3hhOyAgICAgICAgPGNpcmNsZSBjeD0iMjAiIGN5PSIxOSIgcj0iMSIvPiYjeGE7ICAgIDwvZz4mI3hhOyAgICA8cG9seWdvbiBmaWxsPSIjZmZmIiBwb2ludHM9IjI0LDQzIDE5LDMxIDI0LDMyIDI5LDMxIi8+JiN4YTsgICAgPHBvbHlnb24gZmlsbD0iI0QzMkYyRiIgcG9pbnRzPSIyMywzNSAyMi4zLDM5LjUgMjQsNDMuNSAyNS43LDM5LjUgMjUsMzUgMjYsMzQgMjQsMzIgMjIsMzQiLz4mI3hhOyAgICA8cGF0aCBmaWxsPSIjNTQ2RTdBIiBkPSJNMjksMzFMMjksMzFsLTUsMTJsLTUtMTJjMCwwLTExLDItMTEsMTNoMzJDNDAsMzMsMjksMzEsMjksMzF6Ii8+JiN4YTs8L3N2Zz4=;labelBackgroundColor=#ffffff;" vertex="1" parent="1">
          <mxGeometry x="180" y="710" width="48" height="48" as="geometry" />
        </mxCell>
        <mxCell id="PPBAMTf_8ddzBlsgRuzx-3" value="Wallet Home" style="shape=image;verticalLabelPosition=bottom;verticalAlign=top;imageAspect=0;aspect=fixed;image=data:image/svg+xml,PHN2ZyB4bWxucz0iaHR0cDovL3d3dy53My5vcmcvMjAwMC9zdmciIHZlcnNpb249IjEiIHZpZXdCb3g9IjAgMCA0OCA0OCIgZW5hYmxlLWJhY2tncm91bmQ9Im5ldyAwIDAgNDggNDgiPiYjeGE7ICAgIDxwb2x5Z29uIGZpbGw9IiNGRjk4MDAiIHBvaW50cz0iMjQsMzcgMTksMzEgMTksMjUgMjksMjUgMjksMzEiLz4mI3hhOyAgICA8ZyBmaWxsPSIjRkZBNzI2Ij4mI3hhOyAgICAgICAgPGNpcmNsZSBjeD0iMzMiIGN5PSIxOSIgcj0iMiIvPiYjeGE7ICAgICAgICA8Y2lyY2xlIGN4PSIxNSIgY3k9IjE5IiByPSIyIi8+JiN4YTsgICAgPC9nPiYjeGE7ICAgIDxwYXRoIGZpbGw9IiNGRkI3NEQiIGQ9Ik0zMywxM2MwLTcuNi0xOC01LTE4LDBjMCwxLjEsMCw1LjksMCw3YzAsNSw0LDksOSw5czktNCw5LTlDMzMsMTguOSwzMywxNC4xLDMzLDEzeiIvPiYjeGE7ICAgIDxwYXRoIGZpbGw9IiM0MjQyNDIiIGQ9Ik0yNCw0Yy02LjEsMC0xMCw0LjktMTAsMTFjMCwwLjgsMCwyLjMsMCwyLjNsMiwxLjd2LTVsMTItNGw0LDR2NWwyLTEuN2MwLDAsMC0xLjUsMC0yLjNjMC00LTEtOC02LTlsLTEtMiBIMjR6Ii8+JiN4YTsgICAgPGcgZmlsbD0iIzc4NDcxOSI+JiN4YTsgICAgICAgIDxjaXJjbGUgY3g9IjI4IiBjeT0iMTkiIHI9IjEiLz4mI3hhOyAgICAgICAgPGNpcmNsZSBjeD0iMjAiIGN5PSIxOSIgcj0iMSIvPiYjeGE7ICAgIDwvZz4mI3hhOyAgICA8cG9seWdvbiBmaWxsPSIjZmZmIiBwb2ludHM9IjI0LDQzIDE5LDMxIDI0LDMyIDI5LDMxIi8+JiN4YTsgICAgPHBvbHlnb24gZmlsbD0iI0QzMkYyRiIgcG9pbnRzPSIyMywzNSAyMi4zLDM5LjUgMjQsNDMuNSAyNS43LDM5LjUgMjUsMzUgMjYsMzQgMjQsMzIgMjIsMzQiLz4mI3hhOyAgICA8cGF0aCBmaWxsPSIjNTQ2RTdBIiBkPSJNMjksMzFMMjksMzFsLTUsMTJsLTUtMTJjMCwwLTExLDItMTEsMTNoMzJDNDAsMzMsMjksMzEsMjksMzF6Ii8+JiN4YTs8L3N2Zz4=;labelBackgroundColor=#ffffff;" vertex="1" parent="1">
          <mxGeometry x="110" y="800" width="48" height="48" as="geometry" />
        </mxCell>
        <mxCell id="PPBAMTf_8ddzBlsgRuzx-4" value="MsgCenter" style="shape=image;verticalLabelPosition=bottom;verticalAlign=top;imageAspect=0;aspect=fixed;image=data:image/svg+xml,PHN2ZyB4bWxucz0iaHR0cDovL3d3dy53My5vcmcvMjAwMC9zdmciIHZlcnNpb249IjEiIHZpZXdCb3g9IjAgMCA0OCA0OCIgZW5hYmxlLWJhY2tncm91bmQ9Im5ldyAwIDAgNDggNDgiPiYjeGE7ICAgIDxwb2x5Z29uIGZpbGw9IiNGRjk4MDAiIHBvaW50cz0iMjQsMzcgMTksMzEgMTksMjUgMjksMjUgMjksMzEiLz4mI3hhOyAgICA8ZyBmaWxsPSIjRkZBNzI2Ij4mI3hhOyAgICAgICAgPGNpcmNsZSBjeD0iMzMiIGN5PSIxOSIgcj0iMiIvPiYjeGE7ICAgICAgICA8Y2lyY2xlIGN4PSIxNSIgY3k9IjE5IiByPSIyIi8+JiN4YTsgICAgPC9nPiYjeGE7ICAgIDxwYXRoIGZpbGw9IiNGRkI3NEQiIGQ9Ik0zMywxM2MwLTcuNi0xOC01LTE4LDBjMCwxLjEsMCw1LjksMCw3YzAsNSw0LDksOSw5czktNCw5LTlDMzMsMTguOSwzMywxNC4xLDMzLDEzeiIvPiYjeGE7ICAgIDxwYXRoIGZpbGw9IiM0MjQyNDIiIGQ9Ik0yNCw0Yy02LjEsMC0xMCw0LjktMTAsMTFjMCwwLjgsMCwyLjMsMCwyLjNsMiwxLjd2LTVsMTItNGw0LDR2NWwyLTEuN2MwLDAsMC0xLjUsMC0yLjNjMC00LTEtOC02LTlsLTEtMiBIMjR6Ii8+JiN4YTsgICAgPGcgZmlsbD0iIzc4NDcxOSI+JiN4YTsgICAgICAgIDxjaXJjbGUgY3g9IjI4IiBjeT0iMTkiIHI9IjEiLz4mI3hhOyAgICAgICAgPGNpcmNsZSBjeD0iMjAiIGN5PSIxOSIgcj0iMSIvPiYjeGE7ICAgIDwvZz4mI3hhOyAgICA8cG9seWdvbiBmaWxsPSIjZmZmIiBwb2ludHM9IjI0LDQzIDE5LDMxIDI0LDMyIDI5LDMxIi8+JiN4YTsgICAgPHBvbHlnb24gZmlsbD0iI0QzMkYyRiIgcG9pbnRzPSIyMywzNSAyMi4zLDM5LjUgMjQsNDMuNSAyNS43LDM5LjUgMjUsMzUgMjYsMzQgMjQsMzIgMjIsMzQiLz4mI3hhOyAgICA8cGF0aCBmaWxsPSIjNTQ2RTdBIiBkPSJNMjksMzFMMjksMzFsLTUsMTJsLTUtMTJjMCwwLTExLDItMTEsMTNoMzJDNDAsMzMsMjksMzEsMjksMzF6Ii8+JiN4YTs8L3N2Zz4=;labelBackgroundColor=#ffffff;" vertex="1" parent="1">
          <mxGeometry x="180" y="1000" width="48" height="48" as="geometry" />
        </mxCell>
        <mxCell id="PPBAMTf_8ddzBlsgRuzx-5" value="PUSH" style="shape=image;verticalLabelPosition=bottom;verticalAlign=top;imageAspect=0;aspect=fixed;image=data:image/svg+xml,PHN2ZyB4bWxucz0iaHR0cDovL3d3dy53My5vcmcvMjAwMC9zdmciIHZlcnNpb249IjEiIHZpZXdCb3g9IjAgMCA0OCA0OCIgZW5hYmxlLWJhY2tncm91bmQ9Im5ldyAwIDAgNDggNDgiPiYjeGE7ICAgIDxwb2x5Z29uIGZpbGw9IiNGRjk4MDAiIHBvaW50cz0iMjQsMzcgMTksMzEgMTksMjUgMjksMjUgMjksMzEiLz4mI3hhOyAgICA8ZyBmaWxsPSIjRkZBNzI2Ij4mI3hhOyAgICAgICAgPGNpcmNsZSBjeD0iMzMiIGN5PSIxOSIgcj0iMiIvPiYjeGE7ICAgICAgICA8Y2lyY2xlIGN4PSIxNSIgY3k9IjE5IiByPSIyIi8+JiN4YTsgICAgPC9nPiYjeGE7ICAgIDxwYXRoIGZpbGw9IiNGRkI3NEQiIGQ9Ik0zMywxM2MwLTcuNi0xOC01LTE4LDBjMCwxLjEsMCw1LjksMCw3YzAsNSw0LDksOSw5czktNCw5LTlDMzMsMTguOSwzMywxNC4xLDMzLDEzeiIvPiYjeGE7ICAgIDxwYXRoIGZpbGw9IiM0MjQyNDIiIGQ9Ik0yNCw0Yy02LjEsMC0xMCw0LjktMTAsMTFjMCwwLjgsMCwyLjMsMCwyLjNsMiwxLjd2LTVsMTItNGw0LDR2NWwyLTEuN2MwLDAsMC0xLjUsMC0yLjNjMC00LTEtOC02LTlsLTEtMiBIMjR6Ii8+JiN4YTsgICAgPGcgZmlsbD0iIzc4NDcxOSI+JiN4YTsgICAgICAgIDxjaXJjbGUgY3g9IjI4IiBjeT0iMTkiIHI9IjEiLz4mI3hhOyAgICAgICAgPGNpcmNsZSBjeD0iMjAiIGN5PSIxOSIgcj0iMSIvPiYjeGE7ICAgIDwvZz4mI3hhOyAgICA8cG9seWdvbiBmaWxsPSIjZmZmIiBwb2ludHM9IjI0LDQzIDE5LDMxIDI0LDMyIDI5LDMxIi8+JiN4YTsgICAgPHBvbHlnb24gZmlsbD0iI0QzMkYyRiIgcG9pbnRzPSIyMywzNSAyMi4zLDM5LjUgMjQsNDMuNSAyNS43LDM5LjUgMjUsMzUgMjYsMzQgMjQsMzIgMjIsMzQiLz4mI3hhOyAgICA8cGF0aCBmaWxsPSIjNTQ2RTdBIiBkPSJNMjksMzFMMjksMzFsLTUsMTJsLTUtMTJjMCwwLTExLDItMTEsMTNoMzJDNDAsMzMsMjksMzEsMjksMzF6Ii8+JiN4YTs8L3N2Zz4=;labelBackgroundColor=#ffffff;" vertex="1" parent="1">
          <mxGeometry x="110" y="910" width="48" height="48" as="geometry" />
        </mxCell>
        <mxCell id="PPBAMTf_8ddzBlsgRuzx-6" style="edgeStyle=none;rounded=0;orthogonalLoop=1;jettySize=auto;html=1;sourcePerimeterSpacing=5;endArrow=none;endFill=0;targetPerimeterSpacing=5;entryX=1;entryY=1;entryDx=0;entryDy=0;exitX=0.25;exitY=0;exitDx=0;exitDy=0;" edge="1" parent="1" source="PPBAMTf_8ddzBlsgRuzx-1" target="PPBAMTf_8ddzBlsgRuzx-2">
          <mxGeometry relative="1" as="geometry">
            <mxPoint x="408" y="650" as="sourcePoint" />
            <mxPoint x="250" y="650" as="targetPoint" />
          </mxGeometry>
        </mxCell>
        <mxCell id="PPBAMTf_8ddzBlsgRuzx-7" value="82%" style="edgeLabel;html=1;align=center;verticalAlign=middle;resizable=0;points=[];" vertex="1" connectable="0" parent="PPBAMTf_8ddzBlsgRuzx-6">
          <mxGeometry x="-0.0652" y="-2" relative="1" as="geometry">
            <mxPoint x="1" as="offset" />
          </mxGeometry>
        </mxCell>
        <mxCell id="PPBAMTf_8ddzBlsgRuzx-8" style="edgeStyle=none;rounded=0;orthogonalLoop=1;jettySize=auto;html=1;sourcePerimeterSpacing=5;endArrow=none;endFill=0;targetPerimeterSpacing=5;entryX=1;entryY=0.5;entryDx=0;entryDy=0;exitX=0;exitY=0;exitDx=0;exitDy=0;" edge="1" parent="1" source="PPBAMTf_8ddzBlsgRuzx-1" target="PPBAMTf_8ddzBlsgRuzx-3">
          <mxGeometry relative="1" as="geometry">
            <mxPoint x="266" y="932" as="sourcePoint" />
            <mxPoint x="190" y="827" as="targetPoint" />
          </mxGeometry>
        </mxCell>
        <mxCell id="PPBAMTf_8ddzBlsgRuzx-9" value="15%" style="edgeLabel;html=1;align=center;verticalAlign=middle;resizable=0;points=[];" vertex="1" connectable="0" parent="PPBAMTf_8ddzBlsgRuzx-8">
          <mxGeometry x="-0.0652" y="-2" relative="1" as="geometry">
            <mxPoint x="1" as="offset" />
          </mxGeometry>
        </mxCell>
        <mxCell id="PPBAMTf_8ddzBlsgRuzx-11" style="edgeStyle=none;rounded=0;orthogonalLoop=1;jettySize=auto;html=1;sourcePerimeterSpacing=5;endArrow=none;endFill=0;targetPerimeterSpacing=5;entryX=1;entryY=0.5;entryDx=0;entryDy=0;exitX=0;exitY=0.75;exitDx=0;exitDy=0;" edge="1" parent="1" source="PPBAMTf_8ddzBlsgRuzx-1" target="PPBAMTf_8ddzBlsgRuzx-5">
          <mxGeometry relative="1" as="geometry">
            <mxPoint x="299" y="965" as="sourcePoint" />
            <mxPoint x="161" y="920" as="targetPoint" />
          </mxGeometry>
        </mxCell>
        <mxCell id="PPBAMTf_8ddzBlsgRuzx-12" value="2%" style="edgeLabel;html=1;align=center;verticalAlign=middle;resizable=0;points=[];" vertex="1" connectable="0" parent="PPBAMTf_8ddzBlsgRuzx-11">
          <mxGeometry x="-0.0652" y="-2" relative="1" as="geometry">
            <mxPoint x="1" as="offset" />
          </mxGeometry>
        </mxCell>
        <mxCell id="PPBAMTf_8ddzBlsgRuzx-14" style="edgeStyle=none;rounded=0;orthogonalLoop=1;jettySize=auto;html=1;sourcePerimeterSpacing=5;endArrow=none;endFill=0;targetPerimeterSpacing=5;entryX=1;entryY=0;entryDx=0;entryDy=0;exitX=0.25;exitY=1;exitDx=0;exitDy=0;" edge="1" parent="1" source="PPBAMTf_8ddzBlsgRuzx-1" target="PPBAMTf_8ddzBlsgRuzx-4">
          <mxGeometry relative="1" as="geometry">
            <mxPoint x="360" y="950" as="sourcePoint" />
            <mxPoint x="228" y="981" as="targetPoint" />
          </mxGeometry>
        </mxCell>
        <mxCell id="PPBAMTf_8ddzBlsgRuzx-15" value="1%" style="edgeLabel;html=1;align=center;verticalAlign=middle;resizable=0;points=[];" vertex="1" connectable="0" parent="PPBAMTf_8ddzBlsgRuzx-14">
          <mxGeometry x="-0.0652" y="-2" relative="1" as="geometry">
            <mxPoint x="1" as="offset" />
          </mxGeometry>
        </mxCell>
        <mxCell id="PPBAMTf_8ddzBlsgRuzx-25" style="edgeStyle=orthogonalEdgeStyle;rounded=0;orthogonalLoop=1;jettySize=auto;html=1;entryX=0;entryY=0.5;entryDx=0;entryDy=0;" edge="1" parent="1" source="PPBAMTf_8ddzBlsgRuzx-18" target="PPBAMTf_8ddzBlsgRuzx-19">
          <mxGeometry relative="1" as="geometry" />
        </mxCell>
        <mxCell id="PPBAMTf_8ddzBlsgRuzx-69" value="95%" style="edgeLabel;html=1;align=center;verticalAlign=middle;resizable=0;points=[];" vertex="1" connectable="0" parent="PPBAMTf_8ddzBlsgRuzx-25">
          <mxGeometry x="-0.2481" y="-1" relative="1" as="geometry">
            <mxPoint as="offset" />
          </mxGeometry>
        </mxCell>
        <mxCell id="PPBAMTf_8ddzBlsgRuzx-34" style="edgeStyle=orthogonalEdgeStyle;rounded=0;orthogonalLoop=1;jettySize=auto;html=1;entryX=0.5;entryY=1;entryDx=0;entryDy=0;strokeColor=#00CC00;" edge="1" parent="1" source="PPBAMTf_8ddzBlsgRuzx-18" target="PPBAMTf_8ddzBlsgRuzx-20">
          <mxGeometry relative="1" as="geometry">
            <Array as="points">
              <mxPoint x="496" y="1080" />
              <mxPoint x="793" y="1080" />
            </Array>
          </mxGeometry>
        </mxCell>
        <mxCell id="PPBAMTf_8ddzBlsgRuzx-35" value="单人脸需要OTP: 5%" style="edgeLabel;html=1;align=center;verticalAlign=middle;resizable=0;points=[];" vertex="1" connectable="0" parent="PPBAMTf_8ddzBlsgRuzx-34">
          <mxGeometry x="-0.3019" y="-1" relative="1" as="geometry">
            <mxPoint as="offset" />
          </mxGeometry>
        </mxCell>
        <mxCell id="PPBAMTf_8ddzBlsgRuzx-18" value="cl-otp" style="image;aspect=fixed;perimeter=ellipsePerimeter;html=1;align=center;shadow=0;dashed=0;fontColor=#4277BB;labelBackgroundColor=default;fontSize=12;spacingTop=3;image=img/lib/ibm/users/browser.svg;flipV=0;" vertex="1" parent="1">
          <mxGeometry x="466" y="860" width="60" height="60" as="geometry" />
        </mxCell>
        <mxCell id="PPBAMTf_8ddzBlsgRuzx-26" style="edgeStyle=orthogonalEdgeStyle;rounded=0;orthogonalLoop=1;jettySize=auto;html=1;entryX=0;entryY=0.5;entryDx=0;entryDy=0;" edge="1" parent="1" source="PPBAMTf_8ddzBlsgRuzx-19" target="PPBAMTf_8ddzBlsgRuzx-20">
          <mxGeometry relative="1" as="geometry" />
        </mxCell>
        <mxCell id="PPBAMTf_8ddzBlsgRuzx-73" value="95%" style="edgeLabel;html=1;align=center;verticalAlign=middle;resizable=0;points=[];" vertex="1" connectable="0" parent="PPBAMTf_8ddzBlsgRuzx-26">
          <mxGeometry x="-0.0805" y="2" relative="1" as="geometry">
            <mxPoint as="offset" />
          </mxGeometry>
        </mxCell>
        <mxCell id="PPBAMTf_8ddzBlsgRuzx-40" style="edgeStyle=orthogonalEdgeStyle;rounded=0;orthogonalLoop=1;jettySize=auto;html=1;strokeColor=#CC6600;" edge="1" parent="1" source="PPBAMTf_8ddzBlsgRuzx-19">
          <mxGeometry relative="1" as="geometry">
            <mxPoint x="940" y="930" as="targetPoint" />
            <Array as="points">
              <mxPoint x="644" y="1210" />
              <mxPoint x="940" y="1210" />
            </Array>
          </mxGeometry>
        </mxCell>
        <mxCell id="PPBAMTf_8ddzBlsgRuzx-41" value="其实有95%是从cl-kyc过去的：95%" style="edgeLabel;html=1;align=center;verticalAlign=middle;resizable=0;points=[];" vertex="1" connectable="0" parent="PPBAMTf_8ddzBlsgRuzx-40">
          <mxGeometry x="-0.191" y="-1" relative="1" as="geometry">
            <mxPoint x="13" as="offset" />
          </mxGeometry>
        </mxCell>
        <mxCell id="PPBAMTf_8ddzBlsgRuzx-19" value="cl-kyc" style="image;aspect=fixed;perimeter=ellipsePerimeter;html=1;align=center;shadow=0;dashed=0;fontColor=#4277BB;labelBackgroundColor=default;fontSize=12;spacingTop=3;image=img/lib/ibm/users/browser.svg;flipV=0;" vertex="1" parent="1">
          <mxGeometry x="614" y="860" width="60" height="60" as="geometry" />
        </mxCell>
        <mxCell id="PPBAMTf_8ddzBlsgRuzx-27" style="edgeStyle=orthogonalEdgeStyle;rounded=0;orthogonalLoop=1;jettySize=auto;html=1;entryX=0;entryY=0.5;entryDx=0;entryDy=0;" edge="1" parent="1" source="PPBAMTf_8ddzBlsgRuzx-20" target="PPBAMTf_8ddzBlsgRuzx-21">
          <mxGeometry relative="1" as="geometry" />
        </mxCell>
        <mxCell id="PPBAMTf_8ddzBlsgRuzx-74" value="5%" style="edgeLabel;html=1;align=center;verticalAlign=middle;resizable=0;points=[];" vertex="1" connectable="0" parent="PPBAMTf_8ddzBlsgRuzx-27">
          <mxGeometry x="-0.1042" y="1" relative="1" as="geometry">
            <mxPoint as="offset" />
          </mxGeometry>
        </mxCell>
        <mxCell id="PPBAMTf_8ddzBlsgRuzx-20" value="cl-selfie" style="image;aspect=fixed;perimeter=ellipsePerimeter;html=1;align=center;shadow=0;dashed=0;fontColor=#4277BB;labelBackgroundColor=default;fontSize=12;spacingTop=3;image=img/lib/ibm/users/browser.svg;flipV=0;" vertex="1" parent="1">
          <mxGeometry x="763" y="860" width="60" height="60" as="geometry" />
        </mxCell>
        <mxCell id="PPBAMTf_8ddzBlsgRuzx-28" style="edgeStyle=orthogonalEdgeStyle;rounded=0;orthogonalLoop=1;jettySize=auto;html=1;entryX=0;entryY=0.5;entryDx=0;entryDy=0;" edge="1" parent="1" source="PPBAMTf_8ddzBlsgRuzx-21" target="PPBAMTf_8ddzBlsgRuzx-22">
          <mxGeometry relative="1" as="geometry" />
        </mxCell>
        <mxCell id="PPBAMTf_8ddzBlsgRuzx-75" value="60%" style="edgeLabel;html=1;align=center;verticalAlign=middle;resizable=0;points=[];" vertex="1" connectable="0" parent="PPBAMTf_8ddzBlsgRuzx-28">
          <mxGeometry x="-0.2191" y="1" relative="1" as="geometry">
            <mxPoint as="offset" />
          </mxGeometry>
        </mxCell>
        <mxCell id="PPBAMTf_8ddzBlsgRuzx-36" style="edgeStyle=orthogonalEdgeStyle;rounded=0;orthogonalLoop=1;jettySize=auto;html=1;entryX=0.5;entryY=0;entryDx=0;entryDy=0;strokeColor=#CC00CC;" edge="1" parent="1" source="PPBAMTf_8ddzBlsgRuzx-21" target="PPBAMTf_8ddzBlsgRuzx-19">
          <mxGeometry relative="1" as="geometry">
            <Array as="points">
              <mxPoint x="941" y="800" />
              <mxPoint x="644" y="800" />
            </Array>
          </mxGeometry>
        </mxCell>
        <mxCell id="PPBAMTf_8ddzBlsgRuzx-37" value="重拍：5%" style="edgeLabel;html=1;align=center;verticalAlign=middle;resizable=0;points=[];" vertex="1" connectable="0" parent="PPBAMTf_8ddzBlsgRuzx-36">
          <mxGeometry x="0.0792" y="-2" relative="1" as="geometry">
            <mxPoint as="offset" />
          </mxGeometry>
        </mxCell>
        <mxCell id="PPBAMTf_8ddzBlsgRuzx-21" value="cl-kyc-form" style="image;aspect=fixed;perimeter=ellipsePerimeter;html=1;align=center;shadow=0;dashed=0;fontColor=#4277BB;labelBackgroundColor=default;fontSize=12;spacingTop=3;image=img/lib/ibm/users/browser.svg;flipV=0;" vertex="1" parent="1">
          <mxGeometry x="911" y="860" width="60" height="60" as="geometry" />
        </mxCell>
        <mxCell id="PPBAMTf_8ddzBlsgRuzx-22" value="cl-kyc-result" style="image;aspect=fixed;perimeter=ellipsePerimeter;html=1;align=center;shadow=0;dashed=0;fontColor=#4277BB;labelBackgroundColor=default;fontSize=12;spacingTop=3;image=img/lib/ibm/users/browser.svg;flipV=0;" vertex="1" parent="1">
          <mxGeometry x="1060" y="860" width="60" height="60" as="geometry" />
        </mxCell>
        <mxCell id="PPBAMTf_8ddzBlsgRuzx-42" value="授信链路" style="shape=step;perimeter=stepPerimeter;whiteSpace=wrap;html=1;fixedSize=1;" vertex="1" parent="1">
          <mxGeometry x="98" y="620" width="130" height="40" as="geometry" />
        </mxCell>
        <mxCell id="PPBAMTf_8ddzBlsgRuzx-43" value="账单链路" style="shape=step;perimeter=stepPerimeter;whiteSpace=wrap;html=1;fixedSize=1;" vertex="1" parent="1">
          <mxGeometry x="80" y="1380" width="130" height="40" as="geometry" />
        </mxCell>
        <mxCell id="PPBAMTf_8ddzBlsgRuzx-66" style="edgeStyle=orthogonalEdgeStyle;rounded=0;orthogonalLoop=1;jettySize=auto;html=1;entryX=0;entryY=0.5;entryDx=0;entryDy=0;" edge="1" parent="1" source="PPBAMTf_8ddzBlsgRuzx-44" target="PPBAMTf_8ddzBlsgRuzx-65">
          <mxGeometry relative="1" as="geometry">
            <Array as="points">
              <mxPoint x="410" y="1698" />
              <mxPoint x="410" y="1630" />
              <mxPoint x="506" y="1630" />
            </Array>
          </mxGeometry>
        </mxCell>
        <mxCell id="PPBAMTf_8ddzBlsgRuzx-82" value="100%" style="edgeLabel;html=1;align=center;verticalAlign=middle;resizable=0;points=[];" vertex="1" connectable="0" parent="PPBAMTf_8ddzBlsgRuzx-66">
          <mxGeometry x="0.5863" y="-1" relative="1" as="geometry">
            <mxPoint as="offset" />
          </mxGeometry>
        </mxCell>
        <mxCell id="PPBAMTf_8ddzBlsgRuzx-78" style="edgeStyle=orthogonalEdgeStyle;rounded=0;orthogonalLoop=1;jettySize=auto;html=1;entryX=0;entryY=0.5;entryDx=0;entryDy=0;" edge="1" parent="1" source="PPBAMTf_8ddzBlsgRuzx-44" target="PPBAMTf_8ddzBlsgRuzx-77">
          <mxGeometry relative="1" as="geometry">
            <Array as="points">
              <mxPoint x="410" y="1698" />
              <mxPoint x="410" y="1777" />
            </Array>
          </mxGeometry>
        </mxCell>
        <mxCell id="PPBAMTf_8ddzBlsgRuzx-79" value="100%" style="edgeLabel;html=1;align=center;verticalAlign=middle;resizable=0;points=[];" vertex="1" connectable="0" parent="PPBAMTf_8ddzBlsgRuzx-78">
          <mxGeometry x="0.1373" y="2" relative="1" as="geometry">
            <mxPoint x="48" as="offset" />
          </mxGeometry>
        </mxCell>
        <mxCell id="PPBAMTf_8ddzBlsgRuzx-81" style="edgeStyle=orthogonalEdgeStyle;rounded=0;orthogonalLoop=1;jettySize=auto;html=1;entryX=0;entryY=0.5;entryDx=0;entryDy=0;" edge="1" parent="1" source="PPBAMTf_8ddzBlsgRuzx-44" target="PPBAMTf_8ddzBlsgRuzx-80">
          <mxGeometry relative="1" as="geometry">
            <Array as="points">
              <mxPoint x="410" y="1698" />
              <mxPoint x="410" y="1920" />
            </Array>
          </mxGeometry>
        </mxCell>
        <mxCell id="PPBAMTf_8ddzBlsgRuzx-83" value="90%" style="edgeLabel;html=1;align=center;verticalAlign=middle;resizable=0;points=[];" vertex="1" connectable="0" parent="PPBAMTf_8ddzBlsgRuzx-81">
          <mxGeometry x="0.7276" y="-4" relative="1" as="geometry">
            <mxPoint x="7" y="-4" as="offset" />
          </mxGeometry>
        </mxCell>
        <mxCell id="PPBAMTf_8ddzBlsgRuzx-89" style="edgeStyle=orthogonalEdgeStyle;rounded=0;orthogonalLoop=1;jettySize=auto;html=1;entryX=0;entryY=0.5;entryDx=0;entryDy=0;" edge="1" parent="1" source="PPBAMTf_8ddzBlsgRuzx-44" target="PPBAMTf_8ddzBlsgRuzx-88">
          <mxGeometry relative="1" as="geometry">
            <Array as="points">
              <mxPoint x="410" y="1698" />
              <mxPoint x="410" y="1490" />
            </Array>
          </mxGeometry>
        </mxCell>
        <mxCell id="PPBAMTf_8ddzBlsgRuzx-90" value="100%" style="edgeLabel;html=1;align=center;verticalAlign=middle;resizable=0;points=[];" vertex="1" connectable="0" parent="PPBAMTf_8ddzBlsgRuzx-89">
          <mxGeometry x="0.7731" relative="1" as="geometry">
            <mxPoint as="offset" />
          </mxGeometry>
        </mxCell>
        <mxCell id="PPBAMTf_8ddzBlsgRuzx-44" value="cl-home-page" style="image;aspect=fixed;perimeter=ellipsePerimeter;html=1;align=center;shadow=0;dashed=0;fontColor=#4277BB;labelBackgroundColor=default;fontSize=12;spacingTop=3;image=img/lib/ibm/users/browser.svg;flipV=0;" vertex="1" parent="1">
          <mxGeometry x="317" y="1668" width="60" height="60" as="geometry" />
        </mxCell>
        <mxCell id="PPBAMTf_8ddzBlsgRuzx-45" value="Wallet Home" style="shape=image;verticalLabelPosition=bottom;verticalAlign=top;imageAspect=0;aspect=fixed;image=data:image/svg+xml,PHN2ZyB4bWxucz0iaHR0cDovL3d3dy53My5vcmcvMjAwMC9zdmciIHZlcnNpb249IjEiIHZpZXdCb3g9IjAgMCA0OCA0OCIgZW5hYmxlLWJhY2tncm91bmQ9Im5ldyAwIDAgNDggNDgiPiYjeGE7ICAgIDxwb2x5Z29uIGZpbGw9IiNGRjk4MDAiIHBvaW50cz0iMjQsMzcgMTksMzEgMTksMjUgMjksMjUgMjksMzEiLz4mI3hhOyAgICA8ZyBmaWxsPSIjRkZBNzI2Ij4mI3hhOyAgICAgICAgPGNpcmNsZSBjeD0iMzMiIGN5PSIxOSIgcj0iMiIvPiYjeGE7ICAgICAgICA8Y2lyY2xlIGN4PSIxNSIgY3k9IjE5IiByPSIyIi8+JiN4YTsgICAgPC9nPiYjeGE7ICAgIDxwYXRoIGZpbGw9IiNGRkI3NEQiIGQ9Ik0zMywxM2MwLTcuNi0xOC01LTE4LDBjMCwxLjEsMCw1LjksMCw3YzAsNSw0LDksOSw5czktNCw5LTlDMzMsMTguOSwzMywxNC4xLDMzLDEzeiIvPiYjeGE7ICAgIDxwYXRoIGZpbGw9IiM0MjQyNDIiIGQ9Ik0yNCw0Yy02LjEsMC0xMCw0LjktMTAsMTFjMCwwLjgsMCwyLjMsMCwyLjNsMiwxLjd2LTVsMTItNGw0LDR2NWwyLTEuN2MwLDAsMC0xLjUsMC0yLjNjMC00LTEtOC02LTlsLTEtMiBIMjR6Ii8+JiN4YTsgICAgPGcgZmlsbD0iIzc4NDcxOSI+JiN4YTsgICAgICAgIDxjaXJjbGUgY3g9IjI4IiBjeT0iMTkiIHI9IjEiLz4mI3hhOyAgICAgICAgPGNpcmNsZSBjeD0iMjAiIGN5PSIxOSIgcj0iMSIvPiYjeGE7ICAgIDwvZz4mI3hhOyAgICA8cG9seWdvbiBmaWxsPSIjZmZmIiBwb2ludHM9IjI0LDQzIDE5LDMxIDI0LDMyIDI5LDMxIi8+JiN4YTsgICAgPHBvbHlnb24gZmlsbD0iI0QzMkYyRiIgcG9pbnRzPSIyMywzNSAyMi4zLDM5LjUgMjQsNDMuNSAyNS43LDM5LjUgMjUsMzUgMjYsMzQgMjQsMzIgMjIsMzQiLz4mI3hhOyAgICA8cGF0aCBmaWxsPSIjNTQ2RTdBIiBkPSJNMjksMzFMMjksMzFsLTUsMTJsLTUtMTJjMCwwLTExLDItMTEsMTNoMzJDNDAsMzMsMjksMzEsMjksMzF6Ii8+JiN4YTs8L3N2Zz4=;labelBackgroundColor=#ffffff;" vertex="1" parent="1">
          <mxGeometry x="143" y="1558" width="48" height="48" as="geometry" />
        </mxCell>
        <mxCell id="PPBAMTf_8ddzBlsgRuzx-46" value="MyAccount" style="shape=image;verticalLabelPosition=bottom;verticalAlign=top;imageAspect=0;aspect=fixed;image=data:image/svg+xml,PHN2ZyB4bWxucz0iaHR0cDovL3d3dy53My5vcmcvMjAwMC9zdmciIHZlcnNpb249IjEiIHZpZXdCb3g9IjAgMCA0OCA0OCIgZW5hYmxlLWJhY2tncm91bmQ9Im5ldyAwIDAgNDggNDgiPiYjeGE7ICAgIDxwb2x5Z29uIGZpbGw9IiNGRjk4MDAiIHBvaW50cz0iMjQsMzcgMTksMzEgMTksMjUgMjksMjUgMjksMzEiLz4mI3hhOyAgICA8ZyBmaWxsPSIjRkZBNzI2Ij4mI3hhOyAgICAgICAgPGNpcmNsZSBjeD0iMzMiIGN5PSIxOSIgcj0iMiIvPiYjeGE7ICAgICAgICA8Y2lyY2xlIGN4PSIxNSIgY3k9IjE5IiByPSIyIi8+JiN4YTsgICAgPC9nPiYjeGE7ICAgIDxwYXRoIGZpbGw9IiNGRkI3NEQiIGQ9Ik0zMywxM2MwLTcuNi0xOC01LTE4LDBjMCwxLjEsMCw1LjksMCw3YzAsNSw0LDksOSw5czktNCw5LTlDMzMsMTguOSwzMywxNC4xLDMzLDEzeiIvPiYjeGE7ICAgIDxwYXRoIGZpbGw9IiM0MjQyNDIiIGQ9Ik0yNCw0Yy02LjEsMC0xMCw0LjktMTAsMTFjMCwwLjgsMCwyLjMsMCwyLjNsMiwxLjd2LTVsMTItNGw0LDR2NWwyLTEuN2MwLDAsMC0xLjUsMC0yLjNjMC00LTEtOC02LTlsLTEtMiBIMjR6Ii8+JiN4YTsgICAgPGcgZmlsbD0iIzc4NDcxOSI+JiN4YTsgICAgICAgIDxjaXJjbGUgY3g9IjI4IiBjeT0iMTkiIHI9IjEiLz4mI3hhOyAgICAgICAgPGNpcmNsZSBjeD0iMjAiIGN5PSIxOSIgcj0iMSIvPiYjeGE7ICAgIDwvZz4mI3hhOyAgICA8cG9seWdvbiBmaWxsPSIjZmZmIiBwb2ludHM9IjI0LDQzIDE5LDMxIDI0LDMyIDI5LDMxIi8+JiN4YTsgICAgPHBvbHlnb24gZmlsbD0iI0QzMkYyRiIgcG9pbnRzPSIyMywzNSAyMi4zLDM5LjUgMjQsNDMuNSAyNS43LDM5LjUgMjUsMzUgMjYsMzQgMjQsMzIgMjIsMzQiLz4mI3hhOyAgICA8cGF0aCBmaWxsPSIjNTQ2RTdBIiBkPSJNMjksMzFMMjksMzFsLTUsMTJsLTUtMTJjMCwwLTExLDItMTEsMTNoMzJDNDAsMzMsMjksMzEsMjksMzF6Ii8+JiN4YTs8L3N2Zz4=;labelBackgroundColor=#ffffff;" vertex="1" parent="1">
          <mxGeometry x="218" y="1498" width="48" height="48" as="geometry" />
        </mxCell>
        <mxCell id="PPBAMTf_8ddzBlsgRuzx-47" value="cl-repayment-result" style="shape=image;verticalLabelPosition=bottom;verticalAlign=top;imageAspect=0;aspect=fixed;image=data:image/svg+xml,PHN2ZyB4bWxucz0iaHR0cDovL3d3dy53My5vcmcvMjAwMC9zdmciIHZlcnNpb249IjEiIHZpZXdCb3g9IjAgMCA0OCA0OCIgZW5hYmxlLWJhY2tncm91bmQ9Im5ldyAwIDAgNDggNDgiPiYjeGE7ICAgIDxwb2x5Z29uIGZpbGw9IiNGRjk4MDAiIHBvaW50cz0iMjQsMzcgMTksMzEgMTksMjUgMjksMjUgMjksMzEiLz4mI3hhOyAgICA8ZyBmaWxsPSIjRkZBNzI2Ij4mI3hhOyAgICAgICAgPGNpcmNsZSBjeD0iMzMiIGN5PSIxOSIgcj0iMiIvPiYjeGE7ICAgICAgICA8Y2lyY2xlIGN4PSIxNSIgY3k9IjE5IiByPSIyIi8+JiN4YTsgICAgPC9nPiYjeGE7ICAgIDxwYXRoIGZpbGw9IiNGRkI3NEQiIGQ9Ik0zMywxM2MwLTcuNi0xOC01LTE4LDBjMCwxLjEsMCw1LjksMCw3YzAsNSw0LDksOSw5czktNCw5LTlDMzMsMTguOSwzMywxNC4xLDMzLDEzeiIvPiYjeGE7ICAgIDxwYXRoIGZpbGw9IiM0MjQyNDIiIGQ9Ik0yNCw0Yy02LjEsMC0xMCw0LjktMTAsMTFjMCwwLjgsMCwyLjMsMCwyLjNsMiwxLjd2LTVsMTItNGw0LDR2NWwyLTEuN2MwLDAsMC0xLjUsMC0yLjNjMC00LTEtOC02LTlsLTEtMiBIMjR6Ii8+JiN4YTsgICAgPGcgZmlsbD0iIzc4NDcxOSI+JiN4YTsgICAgICAgIDxjaXJjbGUgY3g9IjI4IiBjeT0iMTkiIHI9IjEiLz4mI3hhOyAgICAgICAgPGNpcmNsZSBjeD0iMjAiIGN5PSIxOSIgcj0iMSIvPiYjeGE7ICAgIDwvZz4mI3hhOyAgICA8cG9seWdvbiBmaWxsPSIjZmZmIiBwb2ludHM9IjI0LDQzIDE5LDMxIDI0LDMyIDI5LDMxIi8+JiN4YTsgICAgPHBvbHlnb24gZmlsbD0iI0QzMkYyRiIgcG9pbnRzPSIyMywzNSAyMi4zLDM5LjUgMjQsNDMuNSAyNS43LDM5LjUgMjUsMzUgMjYsMzQgMjQsMzIgMjIsMzQiLz4mI3hhOyAgICA8cGF0aCBmaWxsPSIjNTQ2RTdBIiBkPSJNMjksMzFMMjksMzFsLTUsMTJsLTUtMTJjMCwwLTExLDItMTEsMTNoMzJDNDAsMzMsMjksMzEsMjksMzF6Ii8+JiN4YTs8L3N2Zz4=;labelBackgroundColor=#ffffff;" vertex="1" parent="1">
          <mxGeometry x="95" y="1638" width="48" height="48" as="geometry" />
        </mxCell>
        <mxCell id="PPBAMTf_8ddzBlsgRuzx-86" style="edgeStyle=orthogonalEdgeStyle;rounded=0;orthogonalLoop=1;jettySize=auto;html=1;" edge="1" parent="1" source="PPBAMTf_8ddzBlsgRuzx-48" target="PPBAMTf_8ddzBlsgRuzx-80">
          <mxGeometry relative="1" as="geometry">
            <Array as="points">
              <mxPoint x="207" y="1938" />
            </Array>
          </mxGeometry>
        </mxCell>
        <mxCell id="PPBAMTf_8ddzBlsgRuzx-87" value="3%" style="edgeLabel;html=1;align=center;verticalAlign=middle;resizable=0;points=[];" vertex="1" connectable="0" parent="PPBAMTf_8ddzBlsgRuzx-86">
          <mxGeometry x="0.2699" y="-2" relative="1" as="geometry">
            <mxPoint as="offset" />
          </mxGeometry>
        </mxCell>
        <mxCell id="PPBAMTf_8ddzBlsgRuzx-48" value="MsgCenter" style="shape=image;verticalLabelPosition=bottom;verticalAlign=top;imageAspect=0;aspect=fixed;image=data:image/svg+xml,PHN2ZyB4bWxucz0iaHR0cDovL3d3dy53My5vcmcvMjAwMC9zdmciIHZlcnNpb249IjEiIHZpZXdCb3g9IjAgMCA0OCA0OCIgZW5hYmxlLWJhY2tncm91bmQ9Im5ldyAwIDAgNDggNDgiPiYjeGE7ICAgIDxwb2x5Z29uIGZpbGw9IiNGRjk4MDAiIHBvaW50cz0iMjQsMzcgMTksMzEgMTksMjUgMjksMjUgMjksMzEiLz4mI3hhOyAgICA8ZyBmaWxsPSIjRkZBNzI2Ij4mI3hhOyAgICAgICAgPGNpcmNsZSBjeD0iMzMiIGN5PSIxOSIgcj0iMiIvPiYjeGE7ICAgICAgICA8Y2lyY2xlIGN4PSIxNSIgY3k9IjE5IiByPSIyIi8+JiN4YTsgICAgPC9nPiYjeGE7ICAgIDxwYXRoIGZpbGw9IiNGRkI3NEQiIGQ9Ik0zMywxM2MwLTcuNi0xOC01LTE4LDBjMCwxLjEsMCw1LjksMCw3YzAsNSw0LDksOSw5czktNCw5LTlDMzMsMTguOSwzMywxNC4xLDMzLDEzeiIvPiYjeGE7ICAgIDxwYXRoIGZpbGw9IiM0MjQyNDIiIGQ9Ik0yNCw0Yy02LjEsMC0xMCw0LjktMTAsMTFjMCwwLjgsMCwyLjMsMCwyLjNsMiwxLjd2LTVsMTItNGw0LDR2NWwyLTEuN2MwLDAsMC0xLjUsMC0yLjNjMC00LTEtOC02LTlsLTEtMiBIMjR6Ii8+JiN4YTsgICAgPGcgZmlsbD0iIzc4NDcxOSI+JiN4YTsgICAgICAgIDxjaXJjbGUgY3g9IjI4IiBjeT0iMTkiIHI9IjEiLz4mI3hhOyAgICAgICAgPGNpcmNsZSBjeD0iMjAiIGN5PSIxOSIgcj0iMSIvPiYjeGE7ICAgIDwvZz4mI3hhOyAgICA8cG9seWdvbiBmaWxsPSIjZmZmIiBwb2ludHM9IjI0LDQzIDE5LDMxIDI0LDMyIDI5LDMxIi8+JiN4YTsgICAgPHBvbHlnb24gZmlsbD0iI0QzMkYyRiIgcG9pbnRzPSIyMywzNSAyMi4zLDM5LjUgMjQsNDMuNSAyNS43LDM5LjUgMjUsMzUgMjYsMzQgMjQsMzIgMjIsMzQiLz4mI3hhOyAgICA8cGF0aCBmaWxsPSIjNTQ2RTdBIiBkPSJNMjksMzFMMjksMzFsLTUsMTJsLTUtMTJjMCwwLTExLDItMTEsMTNoMzJDNDAsMzMsMjksMzEsMjksMzF6Ii8+JiN4YTs8L3N2Zz4=;labelBackgroundColor=#ffffff;" vertex="1" parent="1">
          <mxGeometry x="183" y="1858" width="48" height="48" as="geometry" />
        </mxCell>
        <mxCell id="PPBAMTf_8ddzBlsgRuzx-50" style="edgeStyle=none;rounded=0;orthogonalLoop=1;jettySize=auto;html=1;sourcePerimeterSpacing=5;endArrow=none;endFill=0;targetPerimeterSpacing=5;entryX=1;entryY=1;entryDx=0;entryDy=0;exitX=0.25;exitY=0;exitDx=0;exitDy=0;" edge="1" parent="1" source="PPBAMTf_8ddzBlsgRuzx-44" target="PPBAMTf_8ddzBlsgRuzx-46">
          <mxGeometry relative="1" as="geometry">
            <mxPoint x="471" y="1438" as="sourcePoint" />
            <mxPoint x="365" y="1521" as="targetPoint" />
          </mxGeometry>
        </mxCell>
        <mxCell id="PPBAMTf_8ddzBlsgRuzx-51" value="85%" style="edgeLabel;html=1;align=center;verticalAlign=middle;resizable=0;points=[];" vertex="1" connectable="0" parent="PPBAMTf_8ddzBlsgRuzx-50">
          <mxGeometry x="-0.0652" y="-2" relative="1" as="geometry">
            <mxPoint x="1" as="offset" />
          </mxGeometry>
        </mxCell>
        <mxCell id="PPBAMTf_8ddzBlsgRuzx-53" style="edgeStyle=none;rounded=0;orthogonalLoop=1;jettySize=auto;html=1;sourcePerimeterSpacing=5;endArrow=none;endFill=0;targetPerimeterSpacing=5;entryX=1;entryY=0.75;entryDx=0;entryDy=0;exitX=0;exitY=0.25;exitDx=0;exitDy=0;" edge="1" parent="1" source="PPBAMTf_8ddzBlsgRuzx-44" target="PPBAMTf_8ddzBlsgRuzx-45">
          <mxGeometry relative="1" as="geometry">
            <mxPoint x="304" y="1728" as="sourcePoint" />
            <mxPoint x="228" y="1613" as="targetPoint" />
          </mxGeometry>
        </mxCell>
        <mxCell id="PPBAMTf_8ddzBlsgRuzx-54" value="4%" style="edgeLabel;html=1;align=center;verticalAlign=middle;resizable=0;points=[];" vertex="1" connectable="0" parent="PPBAMTf_8ddzBlsgRuzx-53">
          <mxGeometry x="-0.0652" y="-2" relative="1" as="geometry">
            <mxPoint x="1" as="offset" />
          </mxGeometry>
        </mxCell>
        <mxCell id="PPBAMTf_8ddzBlsgRuzx-55" style="edgeStyle=none;rounded=0;orthogonalLoop=1;jettySize=auto;html=1;sourcePerimeterSpacing=5;endArrow=none;endFill=0;targetPerimeterSpacing=5;entryX=1;entryY=0.5;entryDx=0;entryDy=0;exitX=0;exitY=0.5;exitDx=0;exitDy=0;" edge="1" parent="1" source="PPBAMTf_8ddzBlsgRuzx-44" target="PPBAMTf_8ddzBlsgRuzx-47">
          <mxGeometry relative="1" as="geometry">
            <mxPoint x="347" y="1787" as="sourcePoint" />
            <mxPoint x="197" y="1738" as="targetPoint" />
          </mxGeometry>
        </mxCell>
        <mxCell id="PPBAMTf_8ddzBlsgRuzx-56" value="5%" style="edgeLabel;html=1;align=center;verticalAlign=middle;resizable=0;points=[];" vertex="1" connectable="0" parent="PPBAMTf_8ddzBlsgRuzx-55">
          <mxGeometry x="-0.0652" y="-2" relative="1" as="geometry">
            <mxPoint x="1" as="offset" />
          </mxGeometry>
        </mxCell>
        <mxCell id="PPBAMTf_8ddzBlsgRuzx-84" style="edgeStyle=orthogonalEdgeStyle;rounded=0;orthogonalLoop=1;jettySize=auto;html=1;entryX=0;entryY=1;entryDx=0;entryDy=0;" edge="1" parent="1" source="PPBAMTf_8ddzBlsgRuzx-57" target="PPBAMTf_8ddzBlsgRuzx-80">
          <mxGeometry relative="1" as="geometry">
            <Array as="points">
              <mxPoint x="122" y="1978" />
              <mxPoint x="515" y="1978" />
            </Array>
          </mxGeometry>
        </mxCell>
        <mxCell id="PPBAMTf_8ddzBlsgRuzx-85" value="7%" style="edgeLabel;html=1;align=center;verticalAlign=middle;resizable=0;points=[];" vertex="1" connectable="0" parent="PPBAMTf_8ddzBlsgRuzx-84">
          <mxGeometry x="0.4826" y="-1" relative="1" as="geometry">
            <mxPoint as="offset" />
          </mxGeometry>
        </mxCell>
        <mxCell id="PPBAMTf_8ddzBlsgRuzx-57" value="PUSH" style="shape=image;verticalLabelPosition=bottom;verticalAlign=top;imageAspect=0;aspect=fixed;image=data:image/svg+xml,PHN2ZyB4bWxucz0iaHR0cDovL3d3dy53My5vcmcvMjAwMC9zdmciIHZlcnNpb249IjEiIHZpZXdCb3g9IjAgMCA0OCA0OCIgZW5hYmxlLWJhY2tncm91bmQ9Im5ldyAwIDAgNDggNDgiPiYjeGE7ICAgIDxwb2x5Z29uIGZpbGw9IiNGRjk4MDAiIHBvaW50cz0iMjQsMzcgMTksMzEgMTksMjUgMjksMjUgMjksMzEiLz4mI3hhOyAgICA8ZyBmaWxsPSIjRkZBNzI2Ij4mI3hhOyAgICAgICAgPGNpcmNsZSBjeD0iMzMiIGN5PSIxOSIgcj0iMiIvPiYjeGE7ICAgICAgICA8Y2lyY2xlIGN4PSIxNSIgY3k9IjE5IiByPSIyIi8+JiN4YTsgICAgPC9nPiYjeGE7ICAgIDxwYXRoIGZpbGw9IiNGRkI3NEQiIGQ9Ik0zMywxM2MwLTcuNi0xOC01LTE4LDBjMCwxLjEsMCw1LjksMCw3YzAsNSw0LDksOSw5czktNCw5LTlDMzMsMTguOSwzMywxNC4xLDMzLDEzeiIvPiYjeGE7ICAgIDxwYXRoIGZpbGw9IiM0MjQyNDIiIGQ9Ik0yNCw0Yy02LjEsMC0xMCw0LjktMTAsMTFjMCwwLjgsMCwyLjMsMCwyLjNsMiwxLjd2LTVsMTItNGw0LDR2NWwyLTEuN2MwLDAsMC0xLjUsMC0yLjNjMC00LTEtOC02LTlsLTEtMiBIMjR6Ii8+JiN4YTsgICAgPGcgZmlsbD0iIzc4NDcxOSI+JiN4YTsgICAgICAgIDxjaXJjbGUgY3g9IjI4IiBjeT0iMTkiIHI9IjEiLz4mI3hhOyAgICAgICAgPGNpcmNsZSBjeD0iMjAiIGN5PSIxOSIgcj0iMSIvPiYjeGE7ICAgIDwvZz4mI3hhOyAgICA8cG9seWdvbiBmaWxsPSIjZmZmIiBwb2ludHM9IjI0LDQzIDE5LDMxIDI0LDMyIDI5LDMxIi8+JiN4YTsgICAgPHBvbHlnb24gZmlsbD0iI0QzMkYyRiIgcG9pbnRzPSIyMywzNSAyMi4zLDM5LjUgMjQsNDMuNSAyNS43LDM5LjUgMjUsMzUgMjYsMzQgMjQsMzIgMjIsMzQiLz4mI3hhOyAgICA8cGF0aCBmaWxsPSIjNTQ2RTdBIiBkPSJNMjksMzFMMjksMzFsLTUsMTJsLTUtMTJjMCwwLTExLDItMTEsMTNoMzJDNDAsMzMsMjksMzEsMjksMzF6Ii8+JiN4YTs8L3N2Zz4=;labelBackgroundColor=#ffffff;" vertex="1" parent="1">
          <mxGeometry x="98" y="1728" width="48" height="48" as="geometry" />
        </mxCell>
        <mxCell id="PPBAMTf_8ddzBlsgRuzx-58" style="edgeStyle=none;rounded=0;orthogonalLoop=1;jettySize=auto;html=1;sourcePerimeterSpacing=5;endArrow=none;endFill=0;targetPerimeterSpacing=5;entryX=1;entryY=0.5;entryDx=0;entryDy=0;exitX=0;exitY=0.75;exitDx=0;exitDy=0;" edge="1" parent="1" source="PPBAMTf_8ddzBlsgRuzx-44" target="PPBAMTf_8ddzBlsgRuzx-57">
          <mxGeometry relative="1" as="geometry">
            <mxPoint x="368" y="1778" as="sourcePoint" />
            <mxPoint x="218" y="1779" as="targetPoint" />
          </mxGeometry>
        </mxCell>
        <mxCell id="PPBAMTf_8ddzBlsgRuzx-59" value="4%" style="edgeLabel;html=1;align=center;verticalAlign=middle;resizable=0;points=[];" vertex="1" connectable="0" parent="PPBAMTf_8ddzBlsgRuzx-58">
          <mxGeometry x="-0.0652" y="-2" relative="1" as="geometry">
            <mxPoint x="1" as="offset" />
          </mxGeometry>
        </mxCell>
        <mxCell id="PPBAMTf_8ddzBlsgRuzx-60" style="edgeStyle=none;rounded=0;orthogonalLoop=1;jettySize=auto;html=1;sourcePerimeterSpacing=5;endArrow=none;endFill=0;targetPerimeterSpacing=5;entryX=1;entryY=0;entryDx=0;entryDy=0;exitX=0.25;exitY=1;exitDx=0;exitDy=0;" edge="1" parent="1" source="PPBAMTf_8ddzBlsgRuzx-44" target="PPBAMTf_8ddzBlsgRuzx-48">
          <mxGeometry relative="1" as="geometry">
            <mxPoint x="427.5" y="1736" as="sourcePoint" />
            <mxPoint x="288.5" y="1833" as="targetPoint" />
          </mxGeometry>
        </mxCell>
        <mxCell id="PPBAMTf_8ddzBlsgRuzx-61" value="1%" style="edgeLabel;html=1;align=center;verticalAlign=middle;resizable=0;points=[];" vertex="1" connectable="0" parent="PPBAMTf_8ddzBlsgRuzx-60">
          <mxGeometry x="-0.0652" y="-2" relative="1" as="geometry">
            <mxPoint x="1" as="offset" />
          </mxGeometry>
        </mxCell>
        <mxCell id="PPBAMTf_8ddzBlsgRuzx-62" value="cl-kyc-result" style="shape=image;verticalLabelPosition=bottom;verticalAlign=top;imageAspect=0;aspect=fixed;image=data:image/svg+xml,PHN2ZyB4bWxucz0iaHR0cDovL3d3dy53My5vcmcvMjAwMC9zdmciIHZlcnNpb249IjEiIHZpZXdCb3g9IjAgMCA0OCA0OCIgZW5hYmxlLWJhY2tncm91bmQ9Im5ldyAwIDAgNDggNDgiPiYjeGE7ICAgIDxwb2x5Z29uIGZpbGw9IiNGRjk4MDAiIHBvaW50cz0iMjQsMzcgMTksMzEgMTksMjUgMjksMjUgMjksMzEiLz4mI3hhOyAgICA8ZyBmaWxsPSIjRkZBNzI2Ij4mI3hhOyAgICAgICAgPGNpcmNsZSBjeD0iMzMiIGN5PSIxOSIgcj0iMiIvPiYjeGE7ICAgICAgICA8Y2lyY2xlIGN4PSIxNSIgY3k9IjE5IiByPSIyIi8+JiN4YTsgICAgPC9nPiYjeGE7ICAgIDxwYXRoIGZpbGw9IiNGRkI3NEQiIGQ9Ik0zMywxM2MwLTcuNi0xOC01LTE4LDBjMCwxLjEsMCw1LjksMCw3YzAsNSw0LDksOSw5czktNCw5LTlDMzMsMTguOSwzMywxNC4xLDMzLDEzeiIvPiYjeGE7ICAgIDxwYXRoIGZpbGw9IiM0MjQyNDIiIGQ9Ik0yNCw0Yy02LjEsMC0xMCw0LjktMTAsMTFjMCwwLjgsMCwyLjMsMCwyLjNsMiwxLjd2LTVsMTItNGw0LDR2NWwyLTEuN2MwLDAsMC0xLjUsMC0yLjNjMC00LTEtOC02LTlsLTEtMiBIMjR6Ii8+JiN4YTsgICAgPGcgZmlsbD0iIzc4NDcxOSI+JiN4YTsgICAgICAgIDxjaXJjbGUgY3g9IjI4IiBjeT0iMTkiIHI9IjEiLz4mI3hhOyAgICAgICAgPGNpcmNsZSBjeD0iMjAiIGN5PSIxOSIgcj0iMSIvPiYjeGE7ICAgIDwvZz4mI3hhOyAgICA8cG9seWdvbiBmaWxsPSIjZmZmIiBwb2ludHM9IjI0LDQzIDE5LDMxIDI0LDMyIDI5LDMxIi8+JiN4YTsgICAgPHBvbHlnb24gZmlsbD0iI0QzMkYyRiIgcG9pbnRzPSIyMywzNSAyMi4zLDM5LjUgMjQsNDMuNSAyNS43LDM5LjUgMjUsMzUgMjYsMzQgMjQsMzIgMjIsMzQiLz4mI3hhOyAgICA8cGF0aCBmaWxsPSIjNTQ2RTdBIiBkPSJNMjksMzFMMjksMzFsLTUsMTJsLTUtMTJjMCwwLTExLDItMTEsMTNoMzJDNDAsMzMsMjksMzEsMjksMzF6Ii8+JiN4YTs8L3N2Zz4=;labelBackgroundColor=#ffffff;" vertex="1" parent="1">
          <mxGeometry x="132" y="1788" width="48" height="48" as="geometry" />
        </mxCell>
        <mxCell id="PPBAMTf_8ddzBlsgRuzx-63" style="edgeStyle=none;rounded=0;orthogonalLoop=1;jettySize=auto;html=1;sourcePerimeterSpacing=5;endArrow=none;endFill=0;targetPerimeterSpacing=5;entryX=1;entryY=0.5;entryDx=0;entryDy=0;exitX=0;exitY=1;exitDx=0;exitDy=0;" edge="1" parent="1" source="PPBAMTf_8ddzBlsgRuzx-44" target="PPBAMTf_8ddzBlsgRuzx-62">
          <mxGeometry relative="1" as="geometry">
            <mxPoint x="335" y="1747" as="sourcePoint" />
            <mxPoint x="158" y="1698" as="targetPoint" />
          </mxGeometry>
        </mxCell>
        <mxCell id="PPBAMTf_8ddzBlsgRuzx-64" value="1%" style="edgeLabel;html=1;align=center;verticalAlign=middle;resizable=0;points=[];" vertex="1" connectable="0" parent="PPBAMTf_8ddzBlsgRuzx-63">
          <mxGeometry x="-0.0652" y="-2" relative="1" as="geometry">
            <mxPoint x="1" as="offset" />
          </mxGeometry>
        </mxCell>
        <mxCell id="PPBAMTf_8ddzBlsgRuzx-65" value="cl-loan-details" style="image;aspect=fixed;perimeter=ellipsePerimeter;html=1;align=center;shadow=0;dashed=0;fontColor=#4277BB;labelBackgroundColor=default;fontSize=12;spacingTop=3;image=img/lib/ibm/users/browser.svg;flipV=0;" vertex="1" parent="1">
          <mxGeometry x="506" y="1603" width="60" height="60" as="geometry" />
        </mxCell>
        <mxCell id="PPBAMTf_8ddzBlsgRuzx-77" value="cl-loan-history" style="image;aspect=fixed;perimeter=ellipsePerimeter;html=1;align=center;shadow=0;dashed=0;fontColor=#4277BB;labelBackgroundColor=default;fontSize=12;spacingTop=3;image=img/lib/ibm/users/browser.svg;flipV=0;" vertex="1" parent="1">
          <mxGeometry x="506" y="1747" width="60" height="60" as="geometry" />
        </mxCell>
        <mxCell id="PPBAMTf_8ddzBlsgRuzx-80" value="cl-due-details" style="image;aspect=fixed;perimeter=ellipsePerimeter;html=1;align=center;shadow=0;dashed=0;fontColor=#4277BB;labelBackgroundColor=default;fontSize=12;spacingTop=3;image=img/lib/ibm/users/browser.svg;flipV=0;" vertex="1" parent="1">
          <mxGeometry x="506" y="1890" width="60" height="60" as="geometry" />
        </mxCell>
        <mxCell id="PPBAMTf_8ddzBlsgRuzx-88" value="cl-ongoing-loans" style="image;aspect=fixed;perimeter=ellipsePerimeter;html=1;align=center;shadow=0;dashed=0;fontColor=#4277BB;labelBackgroundColor=default;fontSize=12;spacingTop=3;image=img/lib/ibm/users/browser.svg;flipV=0;" vertex="1" parent="1">
          <mxGeometry x="506" y="1460" width="60" height="60" as="geometry" />
        </mxCell>
        <mxCell id="PPBAMTf_8ddzBlsgRuzx-91" value="cl-loan-history" style="image;aspect=fixed;perimeter=ellipsePerimeter;html=1;align=center;shadow=0;dashed=0;fontColor=#4277BB;labelBackgroundColor=default;fontSize=12;spacingTop=3;image=img/lib/ibm/users/browser.svg;flipV=0;" vertex="1" parent="1">
          <mxGeometry x="506" y="2037.5" width="60" height="60" as="geometry" />
        </mxCell>
      </root>
    </mxGraphModel>
  </diagram>
</mxfile>
